<?xml version="1.0" encoding="UTF-8"?>
<svg id="ELEMENTS" xmlns="http://www.w3.org/2000/svg" version="1.1" viewBox="0 0 50 50.6">
  <!-- Generator: Adobe Illustrator 30.0.0, SVG Export Plug-In . SVG Version: 2.1.1 Build 123)  -->
  <path d="M25,44.2h0c-.4,0-.7-.2-1-.4-.6-.6-13.7-14.8-13.7-22.6s6.6-14.7,14.7-14.7,14.7,6.6,14.7,14.7-13.1,22-13.7,22.6c-.2.3-.6.4-1,.4ZM25,9.1c-6.6,0-12,5.4-12,12s8,15.2,12,19.8c4.1-4.6,12-14.6,12-19.8s-5.4-12-12-12Z"/>
  <path d="M25,27.1c-3.6,0-6.6-3-6.6-6.6s3-6.6,6.6-6.6,6.6,3,6.6,6.6-3,6.6-6.6,6.6ZM25,16.5c-2.2,0-4,1.8-4,4s1.8,4,4,4,4-1.8,4-4-1.8-4-4-4Z"/>
</svg>