<?xml version="1.0" encoding="UTF-8"?>
<svg id="Capa_1" xmlns="http://www.w3.org/2000/svg" version="1.1" viewBox="0 0 102.6 102.6">
  <!-- Generator: Adobe Illustrator 30.0.0, SVG Export Plug-In . SVG Version: 2.1.1 Build 123)  -->
  <defs>
    <style>
      .st0 {
        fill: #fff;
      }

      .st1 {
        fill: #608731;
      }

      .st2 {
        fill: #466227;
      }
    </style>
  </defs>
  <g>
    <circle class="st0" cx="51.3" cy="51.3" r="51.3"/>
    <path class="st1" d="M51.3,4.3C25.3,4.3,4.3,25.3,4.3,51.3s21.1,47,47,47,47-21.1,47-47S77.3,4.3,51.3,4.3h0ZM51.3,94.7c-23.9,0-43.4-19.5-43.4-43.4S27.4,7.9,51.3,7.9s43.4,19.5,43.4,43.4-19.5,43.4-43.4,43.4h0ZM51.3,94.7"/>
  </g>
  <g>
    <path class="st2" d="M27.4,69h5.8v2.1c-1.1,0-2,0-3,0-2.6,0-5.3,0-7.9,0-4,.1-7-2.5-8-5.4-1.1-3.3,0-6.7,3.1-9.1.1,0,.2-.2.4-.3-2.4-1.7-3.8-3.9-3.8-6.9,0-2.9,1.4-5.1,3.9-6.8-1.5-1.1-2.7-2.3-3.3-4-1.9-5,1.6-10.6,7-10.7,4.7-.1,9.3,0,14.1,0v2.1h-8.1c3.2,3.9,3.2,7.7,0,11.5.3,0,.6,0,.8,0,16.8,0,33.6,0,50.4,0,3.2,0,5.5-1.9,6-4.9.6-3.2-1.9-6.5-5.2-6.7-.4,0-.8,0-1.2,0-13,0-26,0-39,0s-.8,0-1.3,0v-2.1c.3,0,.6,0,1,0,13.3,0,26.6,0,39.9,0,4.7,0,8.4,3.8,8.2,8.3-.1,2.8-1.5,4.9-3.9,6.5,2.4,1.7,3.9,3.9,3.9,6.9,0,2.9-1.3,5.2-3.8,6.9,3.7,2.8,5,6.4,2.9,10.6-1.9,3.7-5.2,4.6-9.1,4.1v-2.1c.7,0,1.4,0,2.1,0,3.3,0,6-2.6,5.9-5.8,0-3.2-2.6-5.7-5.9-5.8-1.5,0-3,0-4.6,0,0,.5,0,.9,0,1.3,0,3.6,0,7.3,0,10.9,0,.5-.3,1.2-.7,1.6-2.8,2.9-5.6,5.7-8.4,8.4-.3.3-.8.6-1.2.6-9.3,0-18.6,0-27.9,0-.1,0-.2,0-.4,0v-22.7h-8.2c3.1,3.8,3.1,7.6,0,11.5ZM72.2,69v-25.2h-34.3v34.3h25.3v-9.1h9ZM74.5,55.2c1.9,0,3.7.2,5.5,0,2.7-.3,4.6-2.5,4.9-5.3.3-2.3-1.4-4.9-3.7-5.8-2.2-.8-4.4-.3-6.7-.4v11.5ZM35.6,55.3v-11.5h-8.1c3.1,3.8,3.1,7.6,0,11.5,2.4,0,4.7,0,6.9,0s.8,0,1.3,0ZM27.7,49.5c0-3.2-2.5-5.8-5.8-5.8-3.2,0-5.8,2.6-5.8,5.8,0,3.1,2.6,5.7,5.8,5.8,3.2,0,5.8-2.6,5.8-5.8ZM21.9,69c3.2,0,5.7-2.6,5.7-5.9,0-3.2-2.6-5.7-5.8-5.7-3.2,0-5.9,2.7-5.8,5.8,0,3.2,2.7,5.8,5.9,5.8ZM22,30c-3.2,0-5.9,2.5-5.9,5.7,0,3.1,2.6,5.8,5.8,5.9,3.1,0,5.8-2.5,5.8-5.7,0-3.3-2.5-5.9-5.7-5.9ZM65.3,76.1c1.7-1.6,3.4-3.3,5.2-4.9-1.5,0-3,0-4.5,0-.2,0-.6.4-.6.7,0,1.5,0,3,0,4.2Z"/>
    <path class="st2" d="M50.5,34.8v2h-2.2v-2h2.2Z"/>
    <path class="st2" d="M55,36.8h-2.2v-2h2.2v2Z"/>
    <path class="st2" d="M57.4,36.8v-2h2.2v2h-2.2Z"/>
    <path class="st2" d="M44.8,59.9c1-5.2,4-8.2,9.2-9.2v-3.4h2.1v3.4c5.2,1,8.2,4,9.2,9.2h3.4v2.1h-3.4c-1,5.2-4,8.2-9.2,9.2v3.4h-2.1v-3.4c-2.4-.4-4.5-1.3-6.2-3-1.7-1.7-2.6-3.8-3-6.2h-3.4v-2.1h3.4ZM56.1,62.1c0,2.2,0,4.2,0,6.2,0,.2,0,.3,0,.5,2.8.2,6.7-3.3,6.7-6.7h-6.8ZM47.2,62c0,3.5,4.1,7,6.7,6.7v-6.7h-6.7ZM54,59.8v-6.8c-3.4,0-6.9,3.8-6.8,6.8h6.8ZM62.9,59.8c0-3.1-3.6-6.9-6.7-6.7v6.7h6.7Z"/>
    <path class="st2" d="M25.2,49.5c0,1.9-1.5,3.3-3.4,3.3-1.8,0-3.3-1.6-3.3-3.4,0-1.8,1.5-3.3,3.4-3.3,1.9,0,3.3,1.5,3.3,3.4ZM21.7,50.9c.2,0,.3,0,.5,0,.3-.5.8-.9.9-1.4.1-.7-.4-1.1-1.1-1.2-.7,0-1.4.6-1.2,1.2.2.5.6.9,1,1.3Z"/>
    <path class="st2" d="M25.2,63.3c0,1.9-1.5,3.3-3.4,3.3-1.8,0-3.3-1.5-3.3-3.4,0-1.8,1.5-3.3,3.4-3.3,1.9,0,3.3,1.5,3.3,3.4ZM21.6,64.6c.2,0,.3,0,.5,0,.3-.4.9-.8,1-1.3.2-.7-.3-1.2-1.1-1.3-.7,0-1.4.6-1.3,1.2.1.5.6.9.9,1.4Z"/>
    <path class="st2" d="M25.2,35.8c0,1.9-1.5,3.4-3.3,3.3-1.8,0-3.3-1.6-3.3-3.4,0-1.8,1.5-3.3,3.4-3.3,1.9,0,3.3,1.5,3.3,3.4ZM22.1,34.4h-.5c-.3.5-.8.9-.9,1.4-.2.6.6,1.3,1.3,1.2.7,0,1.2-.5,1.1-1.2,0-.5-.6-.9-.9-1.3Z"/>
  </g>
</svg>