<?xml version="1.0" encoding="UTF-8"?>
<svg id="ELEMENTS" xmlns="http://www.w3.org/2000/svg" version="1.1" viewBox="0 0 50 50.6">
  <!-- Generator: Adobe Illustrator 30.0.0, SVG Export Plug-In . SVG Version: 2.1.1 Build 123)  -->
  <path d="M34.4,13.9c-1.1,0-2.1.9-2.1,2.1s.9,2.1,2.1,2.1,2.1-.9,2.1-2.1-.9-2.1-2.1-2.1Z"/>
  <path d="M25.1,16.6c-4.8,0-8.7,3.9-8.7,8.7s3.9,8.7,8.7,8.7,8.7-3.9,8.7-8.7-3.9-8.7-8.7-8.7ZM25.1,30.9c-3.1,0-5.6-2.5-5.6-5.6s2.5-5.6,5.6-5.6,5.6,2.5,5.6,5.6-2.5,5.6-5.6,5.6Z"/>
  <path d="M32.1,43h-14.1c-5.9,0-10.6-4.8-10.6-10.6v-14.1c0-5.9,4.8-10.6,10.6-10.6h14.1c5.9,0,10.6,4.8,10.6,10.6v14.1c0,5.9-4.8,10.6-10.6,10.6ZM17.9,10.9c-4,0-7.3,3.3-7.3,7.3v14.1c0,4,3.3,7.3,7.3,7.3h14.1c4,0,7.3-3.3,7.3-7.3v-14.1c0-4-3.3-7.3-7.3-7.3h-14.1Z"/>
</svg>