<?xml version="1.0" encoding="UTF-8"?>
<svg id="Capa_1" xmlns="http://www.w3.org/2000/svg" version="1.1" xmlns:xlink="http://www.w3.org/1999/xlink" viewBox="0 0 558.5 175">
  <!-- Generator: Adobe Illustrator 30.0.0, SVG Export Plug-In . SVG Version: 2.1.1 Build 123)  -->
  <defs>
    <style>
      .st0 {
        fill: #fff;
      }

      .st1, .st2 {
        fill: none;
      }

      .st3 {
        clip-path: url(#clippath-1);
      }

      .st4 {
        filter: url(#drop-shadow-1);
      }

      .st5 {
        fill: #1a1919;
      }

      .st6 {
        fill: #49a63f;
      }

      .st2 {
        stroke: #fff;
        stroke-linecap: round;
        stroke-linejoin: round;
        stroke-width: 2.9px;
      }

      .st7 {
        fill: #1e673a;
      }

      .st8 {
        clip-path: url(#clippath);
      }
    </style>
    <filter id="drop-shadow-1" x="11" y="2" width="544.1" height="178.3" filterUnits="userSpaceOnUse">
      <feOffset dx="3.7" dy="3.7"/>
      <feGaussianBlur result="blur" stdDeviation="1.9"/>
      <feFlood flood-color="#1a1919" flood-opacity=".5"/>
      <feComposite in2="blur" operator="in"/>
      <feComposite in="SourceGraphic"/>
    </filter>
    <clipPath id="clippath">
      <path class="st1" d="M396.7,116.4s0,0,0,0h0s0,0,0,0Z"/>
    </clipPath>
    <clipPath id="clippath-1">
      <rect class="st1" x="396" y="115.2" width="2.8" height="2.8"/>
    </clipPath>
  </defs>
  <g class="st4">
    <g>
      <path class="st2" d="M35,40.5h0v63.3c0,.4-.3.7-.7.7h-11.9c-.4,0-.7-.3-.7-.7v-54c0-5.2-.9-7.5-6.4-7.5s-.7-.3-.7-.7v-5.8c0-.4.3-.7.7-.7h14.5c2.9,0,5.3,2.4,5.3,5.4ZM119.1,33.9c-4,0-7.9.9-11.6,2.7-3.3,1.6-5.7,3.5-7.2,5.8-4.1-5.6-10.8-8.4-20.2-8.4s-12.4,2.8-17,8.3c-.8-2.4-3-7-7.2-7h-12c-.4,0-.7.3-.7.7v5.8c0,.4.3.7.7.7,5.4,0,6.4,2.3,6.4,7.5v54c0,.4.3.7.7.7h12c.4,0,.7-.3.7-.7v-50c1.1-2.1,2.9-4,5.4-5.7,2.6-1.8,5-2.7,7.2-2.7,3.9,0,7.1.9,9.5,2.7,2.3,1.8,3.5,4.2,3.5,7.3v48.3c0,.4.3.7.7.7h12c.4,0,.7-.3.7-.7v-50.1c.9-2.1,2.5-4,4.9-5.7,2.4-1.7,5-2.6,7.7-2.6,8.8,0,13.1,5,13.1,15.3v43c0,.4.3.7.7.7h12c.4,0,.7-.3.7-.7v-45.4c0-7.7-2-13.8-5.9-18.1-3.9-4.3-9.5-6.5-16.7-6.5ZM26.8,27.5c2.3,0,4.2-.8,5.8-2.4,1.6-1.6,2.4-3.6,2.4-5.8s-.8-4.1-2.4-5.7c-1.6-1.6-3.5-2.4-5.8-2.4s-4.2.8-5.7,2.4c-1.6,1.6-2.4,3.5-2.4,5.8s.8,4.2,2.4,5.8c1.6,1.6,3.5,2.4,5.7,2.4ZM210.7,99v6c0,.4-.3.7-.7.7-5.4,0-10-.8-12.4-2.2,0,0,0,0,0,0-2.2-1.3-4-3.4-5.1-6.1-4.9,5.6-12.2,8.4-21.7,8.4s-10.3-2-14.3-6c-4-4-6-9-6-14.9s3.1-13.2,9.2-18c6.1-4.8,13.9-7.3,23.3-7.3s4.9.5,7.8,1.4c-.1-6.1-1.6-10.6-4.4-13.3-2.3-2.2-5.4-3.4-9.5-3.3-6.6,0-9.9,1.6-10.3,4.6-.1,1,.4,2.9,1.4,4.9.2.4,0,.8-.3,1l-5.2,2.6c-.2,0-.4,0-.6,0-.2,0-.3-.2-.4-.4l-6.4-13.1s0,0,0,0l-1.1-2.2c-.1-.3,0-.7.2-.9,2.3-1.9,5.5-3.5,9.6-4.9,4.1-1.3,8-2,11.7-2,9.9,0,17.3,2.3,21.8,6.9,4.5,4.6,6.8,12,6.8,21.9v24.4c0,5.5,1.9,11.2,5.7,11.2.4,0,.7.3.7.7ZM183.8,69.9c-5.9,0-10.7,1.5-14.3,4.5-3.6,3-5.5,6.5-5.5,10.6,0,6.7,3.8,9.9,11.7,9.9s10.9-2.8,15.3-8.2v-15.6c-3.4-.7-5.8-1.1-7.2-1.1ZM344,69.7c0,11.1-2.8,20-8.3,26.4-5.6,6.5-13.2,9.7-22.8,9.7s-17.6-3.3-23-9.8c-5.4-6.5-8.2-15.4-8.2-26.3s2.9-19.3,8.6-25.9c5.7-6.6,13.3-9.9,22.7-9.9s17.6,3.2,23,9.5c0,0,0,0,0,0,5.4,6.3,8.1,15.1,8.1,26.3ZM330,69.7c0-16.5-5.6-24.6-17.1-24.6s-9.3,2.1-12.5,6.4c-3.2,4.3-4.7,10.4-4.7,18.1,0,16.7,5.6,24.9,17.2,24.9s9.5-2.2,12.5-6.5c3.1-4.4,4.6-10.6,4.6-18.3ZM279.6,35.8c.1.1.2.3.2.5v5.8c0,.4-.3.7-.7.7-5.4,0-6.4,2.3-6.4,7.5v41.5c.6,21.6-2.2,33.1-10,40.9-6.9,7-16.3,8.4-22.9,8.4s-16.1-2.2-20.9-5.8c-.2-.2-.3-.5-.3-.8l2.8-9.5c0-.2.2-.4.5-.5.2,0,.5,0,.6,0,2.3,1.6,8.5,5.3,17.7,5.3,15.7,0,18.7-17.1,19.1-27.3v-7.2c-4.2,6.3-11.1,9.9-19.1,9.9-15.4,0-27-14.7-27-34.2s14.3-37.1,28.5-37.1,16.5,6.4,19,10.6c1.4-7.8,5.7-9,8.3-9h2.4c0,0,.1,0,.2,0,0,0,0,0,0,0h7.4s0,0,0,0c.2,0,.4,0,.5.2ZM243,45.7c-9.1,0-16.8,11-16.8,24.1s7.7,24.1,16.8,24.1,16.2-10.8,16.2-24.1-7.3-24.1-16.2-24.1Z"/>
      <path class="st5" d="M35,40.5h0v63.3c0,.4-.3.7-.7.7h-11.9c-.4,0-.7-.3-.7-.7v-54c0-5.2-.9-7.5-6.4-7.5s-.7-.3-.7-.7v-5.8c0-.4.3-.7.7-.7h14.5c2.9,0,5.3,2.4,5.3,5.4ZM119.1,33.9c-4,0-7.9.9-11.6,2.7-3.3,1.6-5.7,3.5-7.2,5.8-4.1-5.6-10.8-8.4-20.2-8.4s-12.4,2.8-17,8.3c-.8-2.4-3-7-7.2-7h-12c-.4,0-.7.3-.7.7v5.8c0,.4.3.7.7.7,5.4,0,6.4,2.3,6.4,7.5v54c0,.4.3.7.7.7h12c.4,0,.7-.3.7-.7v-50c1.1-2.1,2.9-4,5.4-5.7,2.6-1.8,5-2.7,7.2-2.7,3.9,0,7.1.9,9.5,2.7,2.3,1.8,3.5,4.2,3.5,7.3v48.3c0,.4.3.7.7.7h12c.4,0,.7-.3.7-.7v-50.1c.9-2.1,2.5-4,4.9-5.7,2.4-1.7,5-2.6,7.7-2.6,8.8,0,13.1,5,13.1,15.3v43c0,.4.3.7.7.7h12c.4,0,.7-.3.7-.7v-45.4c0-7.7-2-13.8-5.9-18.1-3.9-4.3-9.5-6.5-16.7-6.5ZM26.8,27.5c2.3,0,4.2-.8,5.8-2.4,1.6-1.6,2.4-3.6,2.4-5.8s-.8-4.1-2.4-5.7c-1.6-1.6-3.5-2.4-5.8-2.4s-4.2.8-5.7,2.4c-1.6,1.6-2.4,3.5-2.4,5.8s.8,4.2,2.4,5.8c1.6,1.6,3.5,2.4,5.7,2.4ZM210.7,99v6c0,.4-.3.7-.7.7-5.4,0-10-.8-12.4-2.2,0,0,0,0,0,0-2.2-1.3-4-3.4-5.1-6.1-4.9,5.6-12.2,8.4-21.7,8.4s-10.3-2-14.3-6c-4-4-6-9-6-14.9s3.1-13.2,9.2-18c6.1-4.8,13.9-7.3,23.3-7.3s4.9.5,7.8,1.4c-.1-6.1-1.6-10.6-4.4-13.3-2.3-2.2-5.4-3.4-9.5-3.3-6.6,0-9.9,1.6-10.3,4.6-.1,1,.4,2.9,1.4,4.9.2.4,0,.8-.3,1l-5.2,2.6c-.2,0-.4,0-.6,0-.2,0-.3-.2-.4-.4l-6.4-13.1s0,0,0,0l-1.1-2.2c-.1-.3,0-.7.2-.9,2.3-1.9,5.5-3.5,9.6-4.9,4.1-1.3,8-2,11.7-2,9.9,0,17.3,2.3,21.8,6.9,4.5,4.6,6.8,12,6.8,21.9v24.4c0,5.5,1.9,11.2,5.7,11.2.4,0,.7.3.7.7ZM183.8,69.9c-5.9,0-10.7,1.5-14.3,4.5-3.6,3-5.5,6.5-5.5,10.6,0,6.7,3.8,9.9,11.7,9.9s10.9-2.8,15.3-8.2v-15.6c-3.4-.7-5.8-1.1-7.2-1.1ZM344,69.7c0,11.1-2.8,20-8.3,26.4-5.6,6.5-13.2,9.7-22.8,9.7s-17.6-3.3-23-9.8c-5.4-6.5-8.2-15.4-8.2-26.3s2.9-19.3,8.6-25.9c5.7-6.6,13.3-9.9,22.7-9.9s17.6,3.2,23,9.5c0,0,0,0,0,0,5.4,6.3,8.1,15.1,8.1,26.3ZM330,69.7c0-16.5-5.6-24.6-17.1-24.6s-9.3,2.1-12.5,6.4c-3.2,4.3-4.7,10.4-4.7,18.1,0,16.7,5.6,24.9,17.2,24.9s9.5-2.2,12.5-6.5c3.1-4.4,4.6-10.6,4.6-18.3ZM279.6,35.8c.1.1.2.3.2.5v5.8c0,.4-.3.7-.7.7-5.4,0-6.4,2.3-6.4,7.5v41.5c.6,21.6-2.2,33.1-10,40.9-6.9,7-16.3,8.4-22.9,8.4s-16.1-2.2-20.9-5.8c-.2-.2-.3-.5-.3-.8l2.8-9.5c0-.2.2-.4.5-.5.2,0,.5,0,.6,0,2.3,1.6,8.5,5.3,17.7,5.3,15.7,0,18.7-17.1,19.1-27.3v-7.2c-4.2,6.3-11.1,9.9-19.1,9.9-15.4,0-27-14.7-27-34.2s14.3-37.1,28.5-37.1,16.5,6.4,19,10.6c1.4-7.8,5.7-9,8.3-9h2.4c0,0,.1,0,.2,0,0,0,0,0,0,0h7.4s0,0,0,0c.2,0,.4,0,.5.2ZM243,45.7c-9.1,0-16.8,11-16.8,24.1s7.7,24.1,16.8,24.1,16.2-10.8,16.2-24.1-7.3-24.1-16.2-24.1Z"/>
    </g>
    <g>
      <path class="st2" d="M203.4,122c-2.4,0-4.4.9-5.9,2.7-1.5,1.8-2.3,4.1-2.3,7s.7,5.4,2.2,7.2c1.4,1.8,3.4,2.6,6,2.6s4.5-.9,6-2.6c1.5-1.7,2.2-4.1,2.2-7.2s-.7-5.4-2.1-7.1c-1.5-1.7-3.5-2.6-6.1-2.6ZM206.9,136.9c-.8,1.3-2,1.9-3.5,1.9-3.2,0-4.8-2.4-4.8-7.1s.4-3.9,1.3-5.1c.9-1.2,2-1.9,3.5-1.9,3.2,0,4.8,2.3,4.8,7s-.4,3.9-1.3,5.2ZM44.1,122c-2.5,0-4.4.9-5.9,2.7-1.5,1.8-2.2,4.1-2.2,7s.7,5.4,2.2,7.2c1.4,1.8,3.5,2.6,6,2.6s4.5-.9,6-2.6c1.5-1.7,2.2-4.1,2.2-7.2s-.7-5.4-2.1-7.1c-1.4-1.7-3.4-2.6-6-2.6ZM47.6,136.9c-.8,1.3-2,1.9-3.5,1.9-3.2,0-4.8-2.4-4.8-7.1s.4-3.9,1.3-5.1c.9-1.2,2-1.9,3.5-1.9,3.2,0,4.8,2.3,4.8,7s-.4,3.9-1.3,5.2ZM140.9,130.6l-2.3-1.1c-1.3-.6-2-1.5-2-2.7s.3-1,.8-1.4c1.1-.8,2.6-.7,3.3-.5.6.2.7.5.8.9.1.4,0,1.1-.1,1.4l1.4.5.6-2.2.7-2.2c-2-.9-3.7-1.3-5-1.3s-3.2.4-4.2,1.3c-1.1.9-1.6,2.1-1.6,3.6s0,1.2.3,1.7c.2.5.5,1,.8,1.5.4.5.8.9,1.3,1.2.5.4,1.5.9,3,1.6,1.9.9,2.9,2,2.9,3.2s-1,2.6-3,2.6-2.5-.6-4.3-1.8l-1.1,3.2c1.7,1,3.5,1.5,5.4,1.5s3.6-.5,4.7-1.4c1.1-1,1.7-2.3,1.7-4s-.3-2.4-1-3.2c-.6-.8-1.7-1.6-3.1-2.3ZM159.3,122c-5.3,0-8.4,4.5-8.4,10.1s3.3,9.5,8.8,9.5,4.8-.6,6-1.2l-.6-2.4c-1.2.6-2.6,1-5,1s-6.1-1.9-6.2-6.5h12.6c0-.3.1-.9.1-1.6,0-3.4-1.6-8.8-7.4-8.8ZM154,130c.3-2.3,1.7-5.5,5-5.5s4.6,3.4,4.5,5.5h-9.5ZM66.7,138.7c-1.1,0-2-.3-2.5-1-.5-.7-.8-1.8-.8-3.4v-9.4h5v-2.6h-5v-5.2l-3.2,1.3v3.9h-2.1v2.6h2.1v10.7c0,1.7.5,3.1,1.5,4.2,1,1.1,2.2,1.6,3.6,1.6s3.1-.2,4.4-.5l-.5-2.9c-.9.4-1.7.7-2.5.7ZM24,116.7c-1.1,1.4-1.7,3.3-1.7,5.7h-2.6v2.8h2.6v16h3.2v-16h3.7v-2.8h-3.7v-1c0-1.2.2-2.2.9-2.9.6-.8,1.4-1.1,2.4-1.1s1.1.1,1.8.3l.9-2.5c-1.1-.4-2.1-.5-3-.5-1.9,0-3.4.7-4.5,2.1ZM182.4,122c-2.3,0-4,.9-5.1,2.6l-.2.2h0c0-.4-.6-2.5-1.8-2.5h-3.2v1.6c1.6,0,1.9.8,1.9,2.3v15.1h3.2v-14h0c.4-.7,1-1.2,1.8-1.7.8-.4,1.5-.7,2.3-.7,1.4,0,2.3.4,2.9,1.2.6.8.9,2.2.9,4.2v11h3.2v-11.7c0-5-2-7.5-5.9-7.5ZM113.1,114.6h0s0,0,0,0h-.7c-1.2,0-2.1.9-2.3,3.1v5.6c-1-.9-2.4-1.4-4.3-1.4s-4.2,1-5.8,3c-1.6,2-2.4,4.4-2.4,7.2s.7,5.1,2.1,6.7c1.4,1.7,3.2,2.5,5.5,2.5s3.8-.6,4.9-1.7v1.4h3.2v-22.3c0-1.6.3-2.5,2.1-2.5v-1.8h-2.2ZM110,137.2c-.2.4-.6.7-1.3,1.1-.7.3-1.3.5-1.8.5-4,0-5.9-2.3-5.9-6.8s.5-3.8,1.6-5.1c1.1-1.3,2.4-2,4.2-2s2.5.6,3.3,1.9v10.4ZM124.6,122.4h-3.9v1.6c1.6,0,1.9.8,1.9,2.3v14.9h3.2v-17.4h0c0-.7-.6-1.3-1.2-1.3ZM125.3,117.9c.4-.4.6-.9.6-1.5s-.2-1.1-.6-1.5c-.4-.4-.9-.6-1.4-.6s-1,.2-1.4.6c-.4.4-.6.9-.6,1.5s.2,1.1.6,1.5c.4.4.9.6,1.4.6s1-.2,1.4-.6ZM178.7,117.2c.4,0,.9.2,1.8.7.9.4,1.6.7,2.4.7,1.5,0,2.6-1.2,3.2-3.6h-1.5c-.3.9-.9,1.4-1.8,1.4s-1-.2-1.8-.7c-.8-.5-1.6-.7-2.5-.7s-1.5.4-2,1.1c-.6.7-.9,1.6-1.1,2.6h1.6c.4-.9,1-1.4,1.8-1.4ZM83.2,122c-2.5,0-4.4.9-5.9,2.7-1.5,1.8-2.3,4.1-2.3,7s.7,5.4,2.2,7.2c1.4,1.8,3.5,2.6,6,2.6s4.5-.9,6-2.6c1.5-1.7,2.2-4.1,2.2-7.2s-.7-5.4-2.1-7.1c-1.5-1.7-3.5-2.6-6-2.6ZM86.8,136.9c-.9,1.3-2,1.9-3.5,1.9-3.2,0-4.8-2.4-4.8-7.1s.4-3.9,1.3-5.1c.9-1.2,2-1.9,3.5-1.9,3.2,0,4.8,2.3,4.8,7s-.4,3.9-1.3,5.2Z"/>
      <path class="st5" d="M203.4,122c-2.4,0-4.4.9-5.9,2.7-1.5,1.8-2.3,4.1-2.3,7s.7,5.4,2.2,7.2c1.4,1.8,3.4,2.6,6,2.6s4.5-.9,6-2.6c1.5-1.7,2.2-4.1,2.2-7.2s-.7-5.4-2.1-7.1c-1.5-1.7-3.5-2.6-6.1-2.6ZM206.9,136.9c-.8,1.3-2,1.9-3.5,1.9-3.2,0-4.8-2.4-4.8-7.1s.4-3.9,1.3-5.1c.9-1.2,2-1.9,3.5-1.9,3.2,0,4.8,2.3,4.8,7s-.4,3.9-1.3,5.2ZM44.1,122c-2.5,0-4.4.9-5.9,2.7-1.5,1.8-2.2,4.1-2.2,7s.7,5.4,2.2,7.2c1.4,1.8,3.5,2.6,6,2.6s4.5-.9,6-2.6c1.5-1.7,2.2-4.1,2.2-7.2s-.7-5.4-2.1-7.1c-1.4-1.7-3.4-2.6-6-2.6ZM47.6,136.9c-.8,1.3-2,1.9-3.5,1.9-3.2,0-4.8-2.4-4.8-7.1s.4-3.9,1.3-5.1c.9-1.2,2-1.9,3.5-1.9,3.2,0,4.8,2.3,4.8,7s-.4,3.9-1.3,5.2ZM140.9,130.6l-2.3-1.1c-1.3-.6-2-1.5-2-2.7s.3-1,.8-1.4c1.1-.8,2.6-.7,3.3-.5.6.2.7.5.8.9.1.4,0,1.1-.1,1.4l1.4.5.6-2.2.7-2.2c-2-.9-3.7-1.3-5-1.3s-3.2.4-4.2,1.3c-1.1.9-1.6,2.1-1.6,3.6s0,1.2.3,1.7c.2.5.5,1,.8,1.5.4.5.8.9,1.3,1.2.5.4,1.5.9,3,1.6,1.9.9,2.9,2,2.9,3.2s-1,2.6-3,2.6-2.5-.6-4.3-1.8l-1.1,3.2c1.7,1,3.5,1.5,5.4,1.5s3.6-.5,4.7-1.4c1.1-1,1.7-2.3,1.7-4s-.3-2.4-1-3.2c-.6-.8-1.7-1.6-3.1-2.3ZM159.3,122c-5.3,0-8.4,4.5-8.4,10.1s3.3,9.5,8.8,9.5,4.8-.6,6-1.2l-.6-2.4c-1.2.6-2.6,1-5,1s-6.1-1.9-6.2-6.5h12.6c0-.3.1-.9.1-1.6,0-3.4-1.6-8.8-7.4-8.8ZM154,130c.3-2.3,1.7-5.5,5-5.5s4.6,3.4,4.5,5.5h-9.5ZM66.7,138.7c-1.1,0-2-.3-2.5-1-.5-.7-.8-1.8-.8-3.4v-9.4h5v-2.6h-5v-5.2l-3.2,1.3v3.9h-2.1v2.6h2.1v10.7c0,1.7.5,3.1,1.5,4.2,1,1.1,2.2,1.6,3.6,1.6s3.1-.2,4.4-.5l-.5-2.9c-.9.4-1.7.7-2.5.7ZM24,116.7c-1.1,1.4-1.7,3.3-1.7,5.7h-2.6v2.8h2.6v16h3.2v-16h3.7v-2.8h-3.7v-1c0-1.2.2-2.2.9-2.9.6-.8,1.4-1.1,2.4-1.1s1.1.1,1.8.3l.9-2.5c-1.1-.4-2.1-.5-3-.5-1.9,0-3.4.7-4.5,2.1ZM182.4,122c-2.3,0-4,.9-5.1,2.6l-.2.2h0c0-.4-.6-2.5-1.8-2.5h-3.2v1.6c1.6,0,1.9.8,1.9,2.3v15.1h3.2v-14h0c.4-.7,1-1.2,1.8-1.7.8-.4,1.5-.7,2.3-.7,1.4,0,2.3.4,2.9,1.2.6.8.9,2.2.9,4.2v11h3.2v-11.7c0-5-2-7.5-5.9-7.5ZM113.1,114.6h0s0,0,0,0h-.7c-1.2,0-2.1.9-2.3,3.1v5.6c-1-.9-2.4-1.4-4.3-1.4s-4.2,1-5.8,3c-1.6,2-2.4,4.4-2.4,7.2s.7,5.1,2.1,6.7c1.4,1.7,3.2,2.5,5.5,2.5s3.8-.6,4.9-1.7v1.4h3.2v-22.3c0-1.6.3-2.5,2.1-2.5v-1.8h-2.2ZM110,137.2c-.2.4-.6.7-1.3,1.1-.7.3-1.3.5-1.8.5-4,0-5.9-2.3-5.9-6.8s.5-3.8,1.6-5.1c1.1-1.3,2.4-2,4.2-2s2.5.6,3.3,1.9v10.4ZM124.6,122.4h-3.9v1.6c1.6,0,1.9.8,1.9,2.3v14.9h3.2v-17.4h0c0-.7-.6-1.3-1.2-1.3ZM125.3,117.9c.4-.4.6-.9.6-1.5s-.2-1.1-.6-1.5c-.4-.4-.9-.6-1.4-.6s-1,.2-1.4.6c-.4.4-.6.9-.6,1.5s.2,1.1.6,1.5c.4.4.9.6,1.4.6s1-.2,1.4-.6ZM178.7,117.2c.4,0,.9.2,1.8.7.9.4,1.6.7,2.4.7,1.5,0,2.6-1.2,3.2-3.6h-1.5c-.3.9-.9,1.4-1.8,1.4s-1-.2-1.8-.7c-.8-.5-1.6-.7-2.5-.7s-1.5.4-2,1.1c-.6.7-.9,1.6-1.1,2.6h1.6c.4-.9,1-1.4,1.8-1.4ZM83.2,122c-2.5,0-4.4.9-5.9,2.7-1.5,1.8-2.3,4.1-2.3,7s.7,5.4,2.2,7.2c1.4,1.8,3.5,2.6,6,2.6s4.5-.9,6-2.6c1.5-1.7,2.2-4.1,2.2-7.2s-.7-5.4-2.1-7.1c-1.5-1.7-3.5-2.6-6-2.6ZM86.8,136.9c-.9,1.3-2,1.9-3.5,1.9-3.2,0-4.8-2.4-4.8-7.1s.4-3.9,1.3-5.1c.9-1.2,2-1.9,3.5-1.9,3.2,0,4.8,2.3,4.8,7s-.4,3.9-1.3,5.2Z"/>
    </g>
    <g>
      <path class="st2" d="M531.8,5.5c-6.7,0-12.2,5.5-12.2,12.3s1.7,7.3,4.6,9.6c-4.3,11.6-8.9,22.8-13.9,33.3-9.7-7-38.8-26-70.4-26.1-8.7,0-17,1.5-24.7,4.4-11.1,4.2-21.7,12.8-32.6,26.4-20,25.1-34.7,60.3-41.9,79.5h-.3c-6.7,0-12.2,5.5-12.2,12.3s5.5,12.3,12.2,12.3,12.2-5.5,12.2-12.3-1.9-7.6-5-9.9c3.9-10.5,8.2-20.7,12.7-30.4,11.6,8.3,39.6,25.6,70.4,25.7,8.8,0,17.2-1.5,25-4.4,11.1-4.2,21.7-12.8,32.6-26.4,20.6-25.9,35.5-61.9,42.7-81.6.3,0,.6,0,.8,0,6.7,0,12.2-5.5,12.2-12.3s-5.5-12.3-12.2-12.3Z"/>
      <path class="st5" d="M531.8,5.5c-6.7,0-12.2,5.5-12.2,12.3s1.7,7.3,4.6,9.6c-4.3,11.6-8.9,22.8-13.9,33.3-9.7-7-38.8-26-70.4-26.1-8.7,0-17,1.5-24.7,4.4-11.1,4.2-21.7,12.8-32.6,26.4-20,25.1-34.7,60.3-41.9,79.5h-.3c-6.7,0-12.2,5.5-12.2,12.3s5.5,12.3,12.2,12.3,12.2-5.5,12.2-12.3-1.9-7.6-5-9.9c3.9-10.5,8.2-20.7,12.7-30.4,11.6,8.3,39.6,25.6,70.4,25.7,8.8,0,17.2-1.5,25-4.4,11.1-4.2,21.7-12.8,32.6-26.4,20.6-25.9,35.5-61.9,42.7-81.6.3,0,.6,0,.8,0,6.7,0,12.2-5.5,12.2-12.3s-5.5-12.3-12.2-12.3Z"/>
    </g>
    <path class="st0" d="M507.1,67.4c-1.9,3.8-3.9,7.6-5.9,11.4-7.1,13-14.5,23.9-22,32.5-8.8,10.1-17.6,16.8-26,19.9-6.9,2.6-14.5,3.9-22.4,3.9h-.1c-4.8,0-9.8-.5-15-1.5-10.6-2-21.7-6-33.1-11.9-6.7-3.5-12.1-7-15.5-9.3-1.3-.9-2.5-1.7-3.4-2.4,2.1-4.2,4.1-8.1,6.2-11.9,9.7-17.7,20.3-32,30.5-41.3h.1c5.8-5.4,11.6-9.1,17.3-11.2,6.9-2.6,14.3-3.9,22.2-3.9s4.9.1,7.3.4c16.1,1.6,31.1,8,40.8,13.2,6.8,3.6,12.2,7.1,15.5,9.4,1.4,1,2.6,1.9,3.5,2.5Z"/>
    <path class="st6" d="M389,88.4c0,26.3,21,47.6,47,47.6s47.1-21.3,47.1-47.6-21.1-47.5-47.1-47.5-47,21.3-47,47.5"/>
    <g class="st8">
      <g class="st3">
        <image width="3" height="3" transform="translate(396 115.2) scale(.9)" xlink:href="Logotipo_IMAGO_Mesa de trabajo 1-1.png"/>
      </g>
    </g>
    <circle class="st0" cx="436.1" cy="88.4" r="26.3"/>
    <path class="st7" d="M436,65.6c12.5,0,22.6,10.2,22.6,22.8h0s-.5,0-.5,0h-44.8c0-12.6,10.1-22.9,22.6-22.9Z"/>
  </g>
</svg>