<?xml version="1.0" encoding="UTF-8"?>
<svg id="Capa_1" xmlns="http://www.w3.org/2000/svg" version="1.1" xmlns:xlink="http://www.w3.org/1999/xlink" viewBox="0 0 422 103.1">
  <!-- Generator: Adobe Illustrator 30.0.0, SVG Export Plug-In . SVG Version: 2.1.1 Build 123)  -->
  <defs>
    <style>
      .st0 {
        fill: #26417b;
      }

      .st1 {
        fill: url(#Degradado_sin_nombre_4);
      }

      .st2 {
        fill: #30a6e8;
      }

      .st3 {
        fill: #f7f300;
      }

      .st4 {
        fill: url(#Degradado_sin_nombre_2);
      }

      .st5 {
        isolation: isolate;
      }

      .st6 {
        fill: #444;
      }

      .st7 {
        fill: #c10075;
      }

      .st8 {
        fill: url(#Degradado_sin_nombre_3);
      }

      .st9 {
        fill: url(#Degradado_sin_nombre);
      }

      .st10 {
        fill: none;
        stroke: #26417b;
        stroke-miterlimit: 10;
        stroke-width: 1.3px;
      }
    </style>
    <linearGradient id="Degradado_sin_nombre" data-name="Degradado sin nombre" x1="56.8" y1="40.7" x2="81" y2="40.7" gradientTransform="translate(0 106) scale(1 -1)" gradientUnits="userSpaceOnUse">
      <stop offset="0" stop-color="#af006b"/>
      <stop offset="1" stop-color="#82004d"/>
    </linearGradient>
    <linearGradient id="Degradado_sin_nombre_2" data-name="Degradado sin nombre 2" x1="48.1" y1="79.9" x2="74" y2="61.1" gradientTransform="translate(0 106) scale(1 -1)" gradientUnits="userSpaceOnUse">
      <stop offset="0" stop-color="#2d97d4"/>
      <stop offset="1" stop-color="#1a6f9c"/>
    </linearGradient>
    <linearGradient id="Degradado_sin_nombre_3" data-name="Degradado sin nombre 3" x1="23.3" y1="36.1" x2="56.2" y2="36.1" gradientTransform="translate(0 106) scale(1 -1)" gradientUnits="userSpaceOnUse">
      <stop offset="0" stop-color="#e1de00"/>
      <stop offset="1" stop-color="#a6a400"/>
    </linearGradient>
    <linearGradient id="Degradado_sin_nombre_4" data-name="Degradado sin nombre 4" x1="22.8" y1="65.5" x2="45.9" y2="65.5" gradientTransform="translate(0 106) scale(1 -1)" gradientUnits="userSpaceOnUse">
      <stop offset="0" stop-color="#7a7a7a"/>
      <stop offset="1" stop-color="#444"/>
    </linearGradient>
  </defs>
  <g class="st5">
    <g class="st5">
      <path class="st6" d="M127.6,19.6c0-2.2-1-5-3.4-5s-4.1,3-4.1,10.5.7,11.7,4.1,11.7,3.7-1.6,3.7-4.8v-3.1h-4v-4.4h9.8v16.1h-4.4v-2.8h0c-1.5,2.3-3.4,3.4-6.3,3.4-7.4,0-8.9-5.5-8.9-15.9s2.3-15.2,10.1-15.2,9.3,3.4,9.3,9.5h-5.8Z"/>
      <path class="st6" d="M137.4,18.1h5.5v3h0c1.2-2.2,2.8-3.6,5.2-3.6s.7,0,1,0v5.5c-.6,0-1.2,0-1.8,0-2,0-4.3,1-4.3,4.1v13.5h-5.8v-22.5Z"/>
      <path class="st6" d="M162.9,38h0c-1.2,2.2-3.3,3.2-5.7,3.2-3.6,0-5.7-1.9-5.7-6.4v-16.7h5.8v15.5c0,2.3.8,3.1,2.5,3.1s3.1-1.3,3.1-3.7v-15h5.8v22.5h-5.5v-2.6Z"/>
      <path class="st6" d="M172.3,18.1h5.5v2.4h0c1.3-2.1,2.8-3,5.1-3,4.7,0,6.9,3.5,6.9,11.9s-2.2,11.9-6.9,11.9-3.6-.9-4.9-2.7h0v9.5h-5.8v-29.9ZM181.2,36.7c2.5,0,3-2.5,3-7.4s-.5-7.4-3-7.4-3.1,2.5-3.1,7.4.5,7.4,3.1,7.4Z"/>
      <path class="st6" d="M201.4,17.5c6.9-.1,8.9,4,8.9,11.9s-2.3,11.9-8.9,11.9c-6.9.1-8.9-4-8.9-11.9s2.3-11.9,8.9-11.9ZM201.4,37.2c2.3,0,3.1-2.3,3.1-7.9s-.8-7.9-3.1-7.9-3.1,3.3-3.1,7.9.3,7.9,3.1,7.9Z"/>
      <path class="st6" d="M236.4,20.8c0-4.4-.9-6.2-3.6-6.2s-3.8,3-3.8,11.5,1.3,10.7,3.9,10.7,3.8-1.1,3.8-7.6h6c0,6.5-1.6,12-9.5,12s-10.2-6.5-10.2-15.5,1.1-15.5,10.2-15.5,9.3,6.3,9.3,10.7h-6Z"/>
      <path class="st6" d="M254.1,17.5c6.9-.1,8.9,4,8.9,11.9s-2.3,11.9-8.9,11.9c-6.9.1-8.9-4-8.9-11.9s2.3-11.9,8.9-11.9ZM254.1,37.2c2.3,0,3.1-2.3,3.1-7.9s-.8-7.9-3.1-7.9-3.1,3.3-3.1,7.9.3,7.9,3.1,7.9Z"/>
      <path class="st6" d="M266.1,18.1h5.5v3h0c1.2-2.2,2.8-3.6,5.2-3.6s.7,0,1,0v5.5c-.6,0-1.2,0-1.8,0-2,0-4.3,1-4.3,4.1v13.5h-5.8v-22.5Z"/>
      <path class="st6" d="M280,18.1h5.5v2.4h0c1.3-2.1,2.8-3,5.1-3,4.7,0,6.9,3.5,6.9,11.9s-2.2,11.9-6.9,11.9-3.6-.9-4.9-2.7h0v9.5h-5.8v-29.9ZM288.8,36.7c2.5,0,3-2.5,3-7.4s-.5-7.4-3-7.4-3.1,2.5-3.1,7.4.5,7.4,3.1,7.4Z"/>
      <path class="st6" d="M309.1,17.5c6.9-.1,8.9,4,8.9,11.9s-2.3,11.9-8.9,11.9c-6.9.1-8.9-4-8.9-11.9s2.3-11.9,8.9-11.9ZM309.1,37.2c2.3,0,3.1-2.3,3.1-7.9s-.8-7.9-3.1-7.9-3.1,3.3-3.1,7.9.3,7.9,3.1,7.9Z"/>
      <path class="st6" d="M321.1,18.1h5.5v3h0c1.2-2.2,2.8-3.6,5.2-3.6s.7,0,1,0v5.5c-.6,0-1.2,0-1.8,0-2,0-4.3,1-4.3,4.1v13.5h-5.8v-22.5Z"/>
      <path class="st6" d="M335,25v-.5c0-5.2,3.6-7,7.9-7,6.9,0,8.2,2.8,8.2,6.9v11.9c0,2.1.2,3,.7,4.4h-5.5c-.4-.7-.5-1.6-.7-2.3h0c-1.3,2.3-2.9,2.9-5.7,2.9-4,0-5.4-3.4-5.4-6.5,0-4.3,1.7-6,5.7-7l3.3-.9c1.7-.5,2.3-1.1,2.3-2.6s-.7-2.8-2.7-2.8-2.7,1.1-2.7,2.9v.6h-5.2ZM345.5,29.3c-.8.6-1.8,1-2.5,1.1-2.3.5-3.3,1.6-3.3,3.6s.6,3.1,2.2,3.1,3.6-1,3.6-3.5v-4.4Z"/>
      <path class="st6" d="M356.4,11.6h5.8v6.5h3.4v3.9h-3.4v12.2c0,1.8.4,2.5,2.1,2.5s.9,0,1.3,0v4c-1.3.1-2.4.3-3.8.3-4.5,0-5.4-1.4-5.4-5.9v-12.9h-2.9v-3.9h2.9v-6.5Z"/>
      <path class="st6" d="M367.8,10.3h5.8v4.9h-5.8v-4.9ZM367.8,18.1h5.8v22.5h-5.8v-22.5Z"/>
      <path class="st6" d="M388.3,18.1h5.8l-5.7,22.5h-6.7l-5.8-22.5h6l3.2,16.1h0l3.1-16.1Z"/>
      <path class="st6" d="M404.4,17.5c6.9-.1,8.9,4,8.9,11.9s-2.3,11.9-8.9,11.9c-6.9.1-8.9-4-8.9-11.9s2.3-11.9,8.9-11.9ZM404.4,37.2c2.3,0,3.1-2.3,3.1-7.9s-.8-7.9-3.1-7.9-3.1,3.3-3.1,7.9.3,7.9,3.1,7.9Z"/>
    </g>
  </g>
  <g class="st5">
    <g class="st5">
      <path class="st0" d="M121.2,69h0c-.9,1.4-1.9,2-3.4,2-3.2,0-4.6-2.3-4.6-7.9s1.5-7.9,4.6-7.9,2.4.6,3.2,1.8h0v-6.3h3.9v20h-3.7v-1.6ZM119,68c1.7,0,2-1.7,2-5s-.3-5-2-5-2,1.7-2,5,.3,5,2,5Z"/>
      <path class="st0" d="M130.8,63.7v1.2c0,1.8.5,3.5,1.9,3.5s1.8-.9,2-2.8h3.5c-.1,3.5-1.8,5.5-5.5,5.5-5.6,0-5.8-4.3-5.8-8.1s.8-7.8,6-7.8,5.5,3,5.5,7.6v.9h-7.6ZM134.7,61.4c0-2.3-.4-3.6-2-3.6s-2,1.6-2,3v.6h3.9Z"/>
      <path class="st0" d="M147.5,70.6v-20h4v20h-4Z"/>
      <path class="st0" d="M154.4,55.5h3.7v1.5h0c1-1.4,2.2-1.9,3.8-1.9s3.1.8,3.5,2.4h0c.6-1.6,2-2.4,3.8-2.4,2.6,0,3.8,1.6,3.8,4.5v10.9h-3.9v-10.5c0-1.3-.4-2-1.5-2s-2,.8-2,2.6v9.9h-3.9v-10.5c0-1.3-.4-2-1.5-2s-2,.8-2,2.6v9.9h-3.9v-15.1Z"/>
      <path class="st0" d="M175.6,55.5h3.7v1.6h0c.9-1.4,1.9-2,3.4-2,3.2,0,4.6,2.3,4.6,7.9s-1.5,7.9-4.6,7.9-2.4-.6-3.2-1.8h0v6.3h-3.9v-20ZM181.5,68c1.7,0,2-1.7,2-5s-.3-5-2-5-2,1.7-2,5,.3,5,2,5Z"/>
      <path class="st0" d="M189.6,55.5h3.7v2h0c.8-1.5,1.9-2.4,3.5-2.4s.5,0,.7,0v3.7c-.4,0-.8,0-1.2,0-1.3,0-2.9.7-2.9,2.7v9h-3.9v-15.1Z"/>
      <path class="st0" d="M202.2,63.7v1.2c0,1.8.5,3.5,1.9,3.5s1.8-.9,2-2.8h3.5c-.1,3.5-1.8,5.5-5.5,5.5-5.6,0-5.8-4.3-5.8-8.1s.8-7.8,6-7.8,5.5,3,5.5,7.6v.9h-7.6ZM206.2,61.4c0-2.3-.4-3.6-2-3.6s-2,1.6-2,3v.6h3.9Z"/>
      <path class="st0" d="M214.7,65.7v.5c0,1.3.7,2.2,2,2.2s2-.6,2-1.8-.6-1.4-1.4-1.7l-2.7-1c-2.1-.8-3.2-2.1-3.2-4.2s1.6-4.5,5.5-4.5,5.2,1.6,5.2,4.3v.6h-3.5c0-1.5-.4-2.3-1.7-2.3s-1.8.5-1.8,1.6.4,1.3,1.7,1.8l2.3.8c2.4.8,3.3,2,3.3,4.3s-2.4,4.7-5.6,4.7-5.5-1.9-5.5-4.8v-.5h3.5Z"/>
      <path class="st0" d="M224.5,50.4h3.9v3.3h-3.9v-3.3ZM224.5,55.5h3.9v15.1h-3.9v-15.1Z"/>
      <path class="st0" d="M236.5,55.1c4.6,0,5.9,2.7,5.9,7.9s-1.5,7.9-5.9,7.9c-4.6,0-5.9-2.7-5.9-7.9s1.5-7.9,5.9-7.9ZM236.5,68.4c1.6,0,2.1-1.5,2.1-5.3s-.5-5.3-2.1-5.3-2.1,2.2-2.1,5.3.2,5.3,2.1,5.3ZM236.6,49.7h3.9l-2.7,4h-2.6l1.5-4Z"/>
      <path class="st0" d="M244.5,55.5h3.7v1.8h0c.8-1.5,2.2-2.2,3.8-2.2,2.4,0,3.8,1.3,3.8,4.3v11.2h-3.9v-10.4c0-1.5-.5-2.1-1.7-2.1s-2,.8-2,2.5v10h-3.9v-15.1Z"/>
      <path class="st0" d="M265.2,72.6c.3,0,.7,0,1,0,1.4,0,2-.8,2.1-2.1l-4.2-15.1h4l2.2,10.4h0l2-10.4h3.9l-3.6,14.1c-1.3,5.2-2.2,5.9-5.8,5.9h-1.6v-2.9Z"/>
      <path class="st0" d="M284.7,50.6h6.6c5.6,0,6.6,3.8,6.6,9.7s-1.5,10.3-6.9,10.3h-6.4v-20ZM288.7,67.6h1.8c2.8,0,3.4-1.8,3.4-7.2s-.4-6.9-3.4-6.9h-1.7v14.1Z"/>
      <path class="st0" d="M300.6,50.4h3.9v3.3h-3.9v-3.3ZM300.6,55.5h3.9v15.1h-3.9v-15.1Z"/>
      <path class="st0" d="M310,65.7v.5c0,1.3.7,2.2,2,2.2s2-.6,2-1.8-.6-1.4-1.4-1.7l-2.7-1c-2.1-.8-3.2-2.1-3.2-4.2s1.6-4.5,5.5-4.5,5.2,1.6,5.2,4.3v.6h-3.5c0-1.5-.4-2.3-1.7-2.3s-1.8.5-1.8,1.6.4,1.3,1.7,1.8l2.3.8c2.4.8,3.3,2,3.3,4.3s-2.4,4.7-5.6,4.7-5.5-1.9-5.5-4.8v-.5h3.5Z"/>
      <path class="st0" d="M322.9,63.7v1.2c0,1.8.5,3.5,1.9,3.5s1.8-.9,2-2.8h3.5c-.1,3.5-1.8,5.5-5.5,5.5-5.6,0-5.8-4.3-5.8-8.1s.8-7.8,6-7.8,5.5,3,5.5,7.6v.9h-7.6ZM326.8,61.4c0-2.3-.4-3.6-2-3.6s-2,1.6-2,3v.6h3.9Z"/>
      <path class="st0" d="M332.6,55.5h3.7v1.8h0c.8-1.5,2.2-2.2,3.8-2.2,2.4,0,3.8,1.3,3.8,4.3v11.2h-3.9v-10.4c0-1.5-.5-2.1-1.7-2.1s-2,.8-2,2.5v10h-3.9v-15.1ZM333.7,53.5c.3-2.2,1.2-3.5,2.6-3.5s.9,0,1.2.2l1.3.6c.3.1.6.2.8.2.5,0,.8-.6.8-1h2c-.2,2-1.2,3.5-2.6,3.5s-2.4-1-3.3-1-.8.3-.9,1h-2Z"/>
      <path class="st0" d="M352,55.1c4.6,0,5.9,2.7,5.9,7.9s-1.5,7.9-5.9,7.9c-4.6,0-5.9-2.7-5.9-7.9s1.5-7.9,5.9-7.9ZM352,68.4c1.6,0,2.1-1.5,2.1-5.3s-.5-5.3-2.1-5.3-2.1,2.2-2.1,5.3.2,5.3,2.1,5.3Z"/>
    </g>
  </g>
  <g class="st5">
    <g class="st5">
      <path d="M113.9,90.9c0,2.5,1.7,3.2,3.9,3.2s3.2-.7,3.2-2.4-1.3-1.9-2.5-2.2l-2.7-.7c-1.4-.4-2.7-1-2.7-2.9s.8-3.4,4.1-3.4,4.4,1.3,4.4,3.7h-1.1c0-1.8-1.6-2.8-3.3-2.8s-3,.6-3,2.4.8,1.6,1.8,1.8l2.9.7c1.7.5,3.1,1.2,3.1,3.2s-.3,3.4-4.6,3.4-4.9-1.3-4.8-4.2h1.1Z"/>
      <path d="M131.6,90.5c0,2.5-1.5,4.6-4.1,4.6s-4.1-2.1-4.1-4.6,1.5-4.6,4.1-4.6,4.1,2.1,4.1,4.6ZM124.4,90.5c0,1.8,1,3.7,3,3.7s3-1.9,3-3.7-1-3.7-3-3.7-3,1.9-3,3.7Z"/>
      <path d="M133.1,82.8h1.1v12h-1.1v-12Z"/>
      <path d="M143.3,94.8h-1v-1.6h0c-.6,1.2-1.7,1.8-3,1.8-2.2,0-3-1.3-3-3.3v-5.6h1.1v5.6c0,1.6.6,2.4,2.3,2.4s2.6-1.7,2.6-3.5v-4.6h1.1v8.7Z"/>
      <path d="M151.4,88.9c-.3-1.3-1.1-2.1-2.5-2.1-2,0-3,1.9-3,3.7s1,3.7,3,3.7,2.4-1,2.5-2.5h1.1c-.3,2.1-1.6,3.4-3.6,3.4s-4.1-2.1-4.1-4.6,1.5-4.6,4.1-4.6,3.3,1,3.5,3h-1.1Z"/>
      <path d="M154,82.8h1.1v1.7h-1.1v-1.7ZM154,86.1h1.1v8.7h-1.1v-8.7Z"/>
      <path d="M164.9,90.5c0,2.5-1.5,4.6-4.1,4.6s-4.1-2.1-4.1-4.6,1.5-4.6,4.1-4.6,4.1,2.1,4.1,4.6ZM157.7,90.5c0,1.8,1,3.7,3,3.7s3-1.9,3-3.7-1-3.7-3-3.7-3,1.9-3,3.7Z"/>
      <path d="M166.4,86.1h1.1v1.5h0c.4-1,1.5-1.7,2.8-1.7,2.4,0,3.2,1.3,3.2,3.3v5.6h-1.1v-5.4c0-1.5-.5-2.6-2.2-2.6s-2.7,1.3-2.7,3v5.1h-1.1v-8.7Z"/>
      <path d="M176.1,90.8c0,1.5.8,3.4,2.9,3.4s2.4-.9,2.7-2.2h1.1c-.5,2-1.6,3.1-3.8,3.1s-3.9-2.1-3.9-4.6,1.2-4.6,3.9-4.6,3.9,2.4,3.8,4.9h-6.7ZM181.7,89.9c0-1.6-1.1-3.1-2.8-3.1s-2.7,1.5-2.9,3.1h5.6Z"/>
      <path d="M189.4,88.7c0-1.3-1.1-1.9-2.3-1.9s-2,.4-2,1.5,1.1,1.3,1.8,1.5l1.4.3c1.2.2,2.5.9,2.5,2.4s-1.9,2.6-3.5,2.6-3.4-.9-3.6-3.1h1.1c0,1.4,1.1,2.2,2.6,2.2s2.4-.4,2.4-1.6-.9-1.3-1.9-1.6l-1.4-.3c-1.4-.4-2.4-.9-2.4-2.3s1.7-2.4,3.3-2.4,3.1.9,3.2,2.8h-1.1Z"/>
      <path d="M204.2,94.1c0,2.6-1,4.2-3.8,4.2s-3.5-.8-3.6-2.6h1.1c.2,1.3,1.4,1.7,2.5,1.7,2,0,2.8-1.1,2.8-3.3v-1.2h0c-.5,1.1-1.5,1.8-2.8,1.8-2.8,0-3.9-2-3.9-4.5s1.4-4.4,3.9-4.4,2.3.8,2.8,1.7h0v-1.5h1.1v8ZM203.2,90.4c0-1.7-.8-3.6-2.8-3.6s-2.9,1.8-2.9,3.6.9,3.4,2.9,3.4,2.8-1.7,2.8-3.4Z"/>
      <path d="M206.3,86.1h1v2h0c.5-1.4,1.7-2.2,3.3-2.2v1.1c-1.9,0-3.2,1.3-3.2,3.1v4.6h-1.1v-8.7Z"/>
      <path d="M211.5,88.8c.1-2,1.5-2.9,3.5-2.9s3.2.5,3.2,2.8v4.6c0,.4.2.6.6.6s.2,0,.3,0v.9c-.3,0-.4,0-.7,0-1.1,0-1.2-.6-1.2-1.5h0c-.8,1.1-1.5,1.8-3.2,1.8s-2.9-.8-2.9-2.5,2.4-2.5,4.7-2.8c.9,0,1.4-.2,1.4-1.2,0-1.4-1-1.8-2.3-1.8s-2.3.6-2.3,2h-1.1ZM217.1,90.1h0c-.1.3-.6.3-.9.4-1.8.3-4,.3-4,2s.9,1.7,1.9,1.7c1.6,0,3-1,3-2.7v-1.4ZM215.2,84.9h-.9l1.8-2.4h1.3l-2.2,2.4Z"/>
      <path d="M220.8,87h-1.5v-.9h1.5v-.8c0-1.5.4-2.5,2.1-2.5s.6,0,.9,0v.9c-.3,0-.5,0-.8,0-1.2,0-1.2.8-1.2,1.7v.8h1.7v.9h-1.7v7.8h-1.1v-7.8ZM224.6,82.8h1.1v1.7h-1.1v-1.7ZM224.6,86.1h1.1v8.7h-1.1v-8.7Z"/>
      <path d="M233.8,88.9c-.3-1.3-1.1-2.1-2.5-2.1-2,0-3,1.9-3,3.7s1,3.7,3,3.7,2.4-1,2.5-2.5h1.1c-.3,2.1-1.6,3.4-3.6,3.4s-4.1-2.1-4.1-4.6,1.5-4.6,4.1-4.6,3.3,1,3.5,3h-1.1Z"/>
      <path d="M236.4,88.8c.1-2,1.5-2.9,3.5-2.9s3.2.5,3.2,2.8v4.6c0,.4.2.6.6.6s.2,0,.3,0v.9c-.3,0-.4,0-.7,0-1.1,0-1.2-.6-1.2-1.5h0c-.8,1.1-1.5,1.8-3.2,1.8s-2.9-.8-2.9-2.5,2.4-2.5,4.7-2.8c.9,0,1.4-.2,1.4-1.2,0-1.4-1-1.8-2.3-1.8s-2.3.6-2.3,2h-1.1ZM242,90.1h0c-.1.3-.6.3-.9.4-1.8.3-4,.3-4,2s.9,1.7,1.9,1.7c1.6,0,3-1,3-2.7v-1.4Z"/>
      <path d="M250.4,88.7c0-1.3-1.1-1.9-2.3-1.9s-2,.4-2,1.5,1.1,1.3,1.8,1.5l1.4.3c1.2.2,2.5.9,2.5,2.4s-1.9,2.6-3.5,2.6-3.4-.9-3.6-3.1h1.1c0,1.4,1.1,2.2,2.6,2.2s2.4-.4,2.4-1.6-.9-1.3-1.9-1.6l-1.4-.3c-1.4-.4-2.4-.9-2.4-2.3s1.7-2.4,3.3-2.4,3.1.9,3.2,2.8h-1.1Z"/>
      <path d="M265.5,98h-1.1v-4.9h0c-.5,1.3-1.7,1.9-3,1.9-2.6,0-3.9-2.1-3.9-4.6s1.3-4.6,3.9-4.6,2.6.8,3.1,1.9h0v-1.6h1v11.9ZM261.4,94.2c2.2,0,3-1.9,3-3.7s-.8-3.7-3-3.7-2.8,1.9-2.8,3.7.8,3.7,2.8,3.7Z"/>
      <path d="M274.6,94.8h-1v-1.6h0c-.6,1.2-1.7,1.8-3,1.8-2.2,0-3-1.3-3-3.3v-5.6h1.1v5.6c0,1.6.6,2.4,2.3,2.4s2.6-1.7,2.6-3.5v-4.6h1.1v8.7Z"/>
      <path d="M277.2,90.8c0,1.5.8,3.4,2.9,3.4s2.4-.9,2.7-2.2h1.1c-.5,2-1.6,3.1-3.8,3.1s-3.9-2.1-3.9-4.6,1.2-4.6,3.9-4.6,3.9,2.4,3.8,4.9h-6.7ZM282.8,89.9c0-1.6-1.1-3.1-2.8-3.1s-2.7,1.5-2.9,3.1h5.6Z"/>
      <path d="M290,82.8h1.1v1.7h-1.1v-1.7ZM290,86.1h1.1v8.7h-1.1v-8.7Z"/>
      <path d="M293.1,86.1h1v1.5h0c.6-1.1,1.4-1.7,2.8-1.7s2.2.6,2.5,1.7c.5-1.1,1.6-1.7,2.8-1.7,1.9,0,2.9,1,2.9,3v5.9h-1.1v-5.8c0-1.4-.5-2.2-2-2.2s-2.4,1.5-2.4,3.1v4.9h-1.1v-5.9c0-1.2-.5-2.2-1.8-2.2s-2.6,1.4-2.6,3.2v4.8h-1.1v-8.7Z"/>
      <path d="M307.1,86.1h1v1.6h0c.5-1.2,1.7-1.9,3.1-1.9,2.6,0,3.9,2.1,3.9,4.6s-1.3,4.6-3.9,4.6-2.6-.6-3-1.9h0v4.9h-1.1v-11.9ZM311.2,86.8c-2.4,0-3,1.7-3,3.7s.8,3.7,3,3.7,2.8-1.9,2.8-3.7-.8-3.7-2.8-3.7Z"/>
      <path d="M323.7,94.8h-1v-1.6h0c-.6,1.2-1.7,1.8-3,1.8-2.2,0-3-1.3-3-3.3v-5.6h1.1v5.6c0,1.6.6,2.4,2.3,2.4s2.6-1.7,2.6-3.5v-4.6h1.1v8.7Z"/>
      <path d="M325.8,82.8h1.1v12h-1.1v-12Z"/>
      <path d="M334,88.7c0-1.3-1.1-1.9-2.3-1.9s-2,.4-2,1.5,1.1,1.3,1.8,1.5l1.4.3c1.2.2,2.5.9,2.5,2.4s-1.9,2.6-3.5,2.6-3.4-.9-3.6-3.1h1.1c0,1.4,1.1,2.2,2.6,2.2s2.4-.4,2.4-1.6-.9-1.3-1.9-1.6l-1.4-.3c-1.4-.4-2.4-.9-2.4-2.3s1.7-2.4,3.3-2.4,3.1.9,3.2,2.8h-1.1Z"/>
      <path d="M336.8,88.8c.1-2,1.5-2.9,3.5-2.9s3.2.5,3.2,2.8v4.6c0,.4.2.6.6.6s.2,0,.3,0v.9c-.3,0-.4,0-.7,0-1.1,0-1.2-.6-1.2-1.5h0c-.8,1.1-1.5,1.8-3.2,1.8s-2.9-.8-2.9-2.5,2.4-2.5,4.7-2.8c.9,0,1.4-.2,1.4-1.2,0-1.4-1-1.8-2.3-1.8s-2.3.6-2.3,2h-1.1ZM342.5,90.1h0c-.1.3-.6.3-.9.4-1.8.3-4,.3-4,2s.9,1.7,1.9,1.7c1.6,0,3-1,3-2.7v-1.4Z"/>
      <path d="M345.6,86.1h1.1v1.5h0c.4-1,1.5-1.7,2.8-1.7,2.4,0,3.2,1.3,3.2,3.3v5.6h-1.1v-5.4c0-1.5-.5-2.6-2.2-2.6s-2.7,1.3-2.7,3v5.1h-1.1v-8.7Z"/>
      <path d="M359.3,86.1h1v1.5h0c.6-1.1,1.4-1.7,2.8-1.7s2.2.6,2.5,1.7c.5-1.1,1.6-1.7,2.8-1.7,1.9,0,2.9,1,2.9,3v5.9h-1.1v-5.8c0-1.4-.5-2.2-2-2.2s-2.4,1.5-2.4,3.1v4.9h-1.1v-5.9c0-1.2-.5-2.2-1.8-2.2s-2.6,1.4-2.6,3.2v4.8h-1.1v-8.7Z"/>
      <path d="M373.2,88.8c.1-2,1.5-2.9,3.5-2.9s3.2.5,3.2,2.8v4.6c0,.4.2.6.6.6s.2,0,.3,0v.9c-.3,0-.4,0-.7,0-1.1,0-1.2-.6-1.2-1.5h0c-.8,1.1-1.5,1.8-3.2,1.8s-2.9-.8-2.9-2.5,2.4-2.5,4.7-2.8c.9,0,1.4-.2,1.4-1.2,0-1.4-1-1.8-2.3-1.8s-2.3.6-2.3,2h-1.1ZM378.9,90.1h0c-.1.3-.6.3-.9.4-1.8.3-4,.3-4,2s.9,1.7,1.9,1.7c1.6,0,3-1,3-2.7v-1.4Z"/>
      <path d="M382.1,86.1h1v2h0c.5-1.4,1.7-2.2,3.3-2.2v1.1c-1.9,0-3.2,1.3-3.2,3.1v4.6h-1.1v-8.7Z"/>
      <path d="M393.2,88.9c-.3-1.3-1.1-2.1-2.5-2.1-2,0-3,1.9-3,3.7s1,3.7,3,3.7,2.4-1,2.5-2.5h1.1c-.3,2.1-1.6,3.4-3.6,3.4s-4.1-2.1-4.1-4.6,1.5-4.6,4.1-4.6,3.3,1,3.5,3h-1.1Z"/>
      <path d="M395.7,88.8c.1-2,1.5-2.9,3.5-2.9s3.2.5,3.2,2.8v4.6c0,.4.2.6.6.6s.2,0,.3,0v.9c-.3,0-.4,0-.7,0-1.1,0-1.2-.6-1.2-1.5h0c-.8,1.1-1.5,1.8-3.2,1.8s-2.9-.8-2.9-2.5,2.4-2.5,4.7-2.8c.9,0,1.4-.2,1.4-1.2,0-1.4-1-1.8-2.3-1.8s-2.3.6-2.3,2h-1.1ZM401.3,90.1h0c-.1.3-.6.3-.9.4-1.8.3-4,.3-4,2s.9,1.7,1.9,1.7c1.6,0,3-1,3-2.7v-1.4Z"/>
      <path d="M409.7,88.7c0-1.3-1.1-1.9-2.3-1.9s-2,.4-2,1.5,1.1,1.3,1.8,1.5l1.4.3c1.2.2,2.5.9,2.5,2.4s-1.9,2.6-3.5,2.6-3.4-.9-3.6-3.1h1.1c0,1.4,1.1,2.2,2.6,2.2s2.4-.4,2.4-1.6-.9-1.3-1.9-1.6l-1.4-.3c-1.4-.4-2.4-.9-2.4-2.3s1.7-2.4,3.3-2.4,3.1.9,3.2,2.8h-1.1Z"/>
      <path d="M413.2,94.8v-1.8h1.4v1.8h-1.4Z"/>
    </g>
  </g>
  <g>
    <path class="st2" d="M97.3,52.6c0,1.3,0,2.6-.2,3.9-3.6-3.4-9.3-7.8-16.7-9.8-2.7-13.2-14.5-23.2-28.5-23.2s-1.2,0-1.7,0c3.4-8.4,10.6-13.9,12.3-15.1,20,4.7,34.9,22.7,34.9,44.2h-.1Z"/>
    <path class="st7" d="M96.5,61.2c-4,21-22.4,36.8-44.6,36.8s-4.2-.2-6.3-.4c3-3.1,8-8.9,11.2-16.3,13.7-2.3,24.1-14.3,24.1-28.7s0-1.3,0-1.9c7.5,2.4,12.9,7.5,15.5,10.5h0Z"/>
    <path class="st9" d="M80.9,50.7v1.9c0,14.4-10.4,26.3-24.1,28.7,2.2-5,3.6-10.9,2.9-17.1,3.7-2.5,6.1-6.8,6.1-11.6s0-1.5-.2-2.3c5.7-1.5,10.8-1,15.2.4h0Z"/>
    <path class="st4" d="M80.4,46.7c-4.7-1.3-10-1.5-15.8,0-2.2-4.8-7.1-8.1-12.7-8.1s-1.8,0-2.7.3c-1-3.6-1.2-7.2-.4-10.8.3-1.6.8-3.1,1.4-4.5h1.7c14,0,25.8,10,28.5,23.2h0Z"/>
    <path class="st8" d="M56.1,66c.3,5.8-1.3,11.1-3.5,15.7h-.7c-14.2,0-26-10.2-28.6-23.6,5.1,1.8,10.8,2.9,16.9,2.2,2.5,3.8,6.8,6.3,11.7,6.3s2.9-.2,4.3-.7h0Z"/>
    <path d="M51.9,7.2c1.9,0,3.7,0,5.5.3-3.6,3.1-9,8.8-11.5,16.6-13.2,2.8-23.1,14.5-23.1,28.5s0,.9,0,1.4c-7.1-2.9-12.6-7.4-15.5-10.1C11.4,23,29.8,7.2,51.9,7.2Z"/>
    <path class="st3" d="M51.9,81.7h.7c-3.9,7.8-9.8,13.4-11.6,15-19.8-4.9-34.6-22.8-34.6-44.1s0-2.8.2-4.2c3.7,3.1,9.5,7.2,16.6,9.8,2.6,13.4,14.4,23.6,28.6,23.6h0Z"/>
    <path class="st1" d="M45.9,24.1c-.4,1-.6,2.1-.8,3.2-.8,4.2-.6,8.5.6,12.8-4.6,2.3-7.8,7.1-7.8,12.6s.2,2.8.6,4.1c-5.7.4-11-.8-15.6-2.7v-1.4c0-14,9.9-25.7,23.1-28.5h0Z"/>
  </g>
  <line class="st10" x1="112.2" y1="79.1" x2="415.6" y2="79.1"/>
</svg>