<?xml version="1.0" encoding="UTF-8"?>
<svg id="Capa_1" xmlns="http://www.w3.org/2000/svg" version="1.1" viewBox="0 0 102.6 102.6">
  <!-- Generator: Adobe Illustrator 30.0.0, SVG Export Plug-In . SVG Version: 2.1.1 Build 123)  -->
  <defs>
    <style>
      .st0 {
        fill: #fff;
      }

      .st1 {
        fill: #608731;
      }

      .st2 {
        fill: #466227;
      }
    </style>
  </defs>
  <g>
    <circle class="st0" cx="51.3" cy="51.3" r="51.3"/>
    <path class="st1" d="M51.3,4.3C25.3,4.3,4.3,25.3,4.3,51.3s21.1,47,47,47,47-21.1,47-47S77.3,4.3,51.3,4.3h0ZM51.3,94.7c-23.9,0-43.4-19.5-43.4-43.4S27.4,7.9,51.3,7.9s43.4,19.5,43.4,43.4-19.5,43.4-43.4,43.4h0ZM51.3,94.7"/>
  </g>
  <g>
    <path class="st2" d="M64.4,29.2c-1.3-.7-2.5-1.2-3.7-1.9,2.1-1.9,4.4-2.9,7-3.2,9.7-1.2,17.2,8,14.1,17.3-.4,1.2-1.1,2.4-1.7,3.6-1.3,2.6-2.6,5.2-4,7.9-.6,1.1-1.7,1.6-2.7,1-.9-.5-1.2-1.6-.7-2.7,1.6-3.2,3.2-6.4,4.9-9.6,2.1-4.2,1.1-8.8-2.5-11.8-2.8-2.4-7.8-2.6-10.5-.5.3.1.5.3.7.4,1.9,1,3.8,1.9,5.7,2.9,2.7,1.4,3.8,4.7,2.4,7.5-7.4,14.7-14.8,29.3-22.3,44-.7,1.3-2,1.6-3.1.6-3.3-3.1-6.6-6.2-9.9-9.3-.3-.3-.7-.5-1-.5-4.4-.8-8.8-1.7-13.2-2.5-1.7-.3-2.2-1.5-1.4-3,7.4-14.6,14.8-29.2,22.1-43.7,1.5-2.9,4.8-4,7.6-2.5,2.5,1.3,5.1,2.6,7.6,3.8.2.1.5.3.7.4-.8,1-1.5,1.8-2.2,2.8-.6,1-1,2-1.6,3.1-.4-.2-.7-.4-1-.5-1-.4-2.2,0-2.6.8-.4.9,0,2.1.9,2.6,1.8.9,3.6,1.9,5.4,2.7,1,.5,2.2,0,2.6-.8.4-.9,0-2.1-.9-2.6-.3-.2-.6-.3-.9-.5.9-2.3,2.2-4.3,4.3-5.7ZM39.4,51.2c-1.7,3.4-3.4,6.7-5.1,10.1-.7,1.4-.4,2.4,1,3.1,4,2,7.9,4,11.9,6,1.6.8,2.5.5,3.4-1.1,3.3-6.6,6.7-13.2,10-19.8.8-1.6.5-2.6-1.1-3.4-3.9-2-7.8-4-11.7-5.9-1.6-.8-2.6-.5-3.4,1.1-1.7,3.3-3.3,6.6-5,9.9Z"/>
    <path class="st2" d="M47.7,66.4c-3-1.5-6.1-3.1-9.1-4.6,2.9-5.8,5.9-11.6,8.8-17.4,3,1.5,6.1,3.1,9.1,4.6-2.9,5.8-5.9,11.6-8.8,17.4ZM49,56.6c.4-.9.9-1.8,1.3-2.6.5-1.1.2-2.1-.8-2.6-1-.5-2-.2-2.6.9-.9,1.8-1.8,3.6-2.7,5.4-.5,1.1-.2,2.1.8,2.6,1,.5,2,.1,2.5-.9.5-.9.9-1.8,1.3-2.6Z"/>
  </g>
</svg>