<?xml version="1.0" encoding="UTF-8"?>
<svg id="Capa_1" xmlns="http://www.w3.org/2000/svg" version="1.1" viewBox="0 0 110.6 110.6">
  <!-- Generator: Adobe Illustrator 30.0.0, SVG Export Plug-In . SVG Version: 2.1.1 Build 123)  -->
  <defs>
    <style>
      .st0, .st1 {
        fill: none;
        stroke: #71a237;
        stroke-miterlimit: 10;
        stroke-width: 2.7px;
      }

      .st2 {
        fill: #fff;
      }

      .st3 {
        fill: #608731;
      }

      .st4 {
        fill: #466227;
      }

      .st1 {
        stroke-dasharray: 5 2.5;
      }
    </style>
  </defs>
  <circle class="st2" cx="55.3" cy="55.3" r="55.3"/>
  <g>
    <path class="st3" d="M55.3,4.6C27.3,4.6,4.6,27.3,4.6,55.3s22.7,50.7,50.7,50.7,50.7-22.7,50.7-50.7S83.3,4.6,55.3,4.6h0ZM55.3,102.1c-25.8,0-46.8-21-46.8-46.8S29.5,8.5,55.3,8.5s46.8,21,46.8,46.8-21,46.8-46.8,46.8h0ZM55.3,102.1"/>
    <path class="st4" d="M46,69c.9,2.9,2.4,7.7,4,12.1h9.8l-5.2-21.1,37.1-2.5s-5-5.9-8-7.1c-3-1.3-17.2-1.3-23.2-1.3-2.7,0-5.5,1.4-7.9,2.9l-1.3-5.3c1.9-.7,3.7-1.9,5-3.7,3.4-4.6,2.4-11.2-2.3-14.6-4.6-3.4-11.2-2.4-14.6,2.3-3.4,4.6-2.4,11.2,2.3,14.6,1.6,1.2,3.4,1.8,5.2,2l1.8,7.1s-.2.4-.5,1c-.5.5-.8.7-.8.7l-7.3.5c-.7-1.7-1.9-3.2-3.4-4.4-4.6-3.4-11.2-2.4-14.6,2.3-3.4,4.6-2.4,11.2,2.3,14.6,4.6,3.4,11.2,2.4,14.6-2.3,1.3-1.8,1.9-3.8,2-5.9l5.5-.4c-.7,2.7-1.1,5.8-.4,8.4ZM45,40.9c-2.2-1.6-2.7-4.7-1.1-7,1.6-2.2,4.7-2.7,7-1.1,2.2,1.6,2.7,4.7,1.1,7-1.6,2.2-4.7,2.7-7,1.1ZM34.5,63.6c-1.6,2.2-4.7,2.7-7,1.1-2.2-1.6-2.7-4.7-1.1-7,1.6-2.2,4.7-2.7,7-1.1,2.2,1.6,2.7,4.7,1.1,7Z"/>
    <g>
      <line class="st0" x1="29" y1="82.4" x2="31.7" y2="82.4"/>
      <line class="st1" x1="34.2" y1="82.4" x2="78.3" y2="82.4"/>
      <line class="st0" x1="79.5" y1="82.4" x2="82.2" y2="82.4"/>
    </g>
  </g>
</svg>