<?xml version="1.0" encoding="UTF-8"?>
<svg id="Capa_1" xmlns="http://www.w3.org/2000/svg" version="1.1" viewBox="0 0 110.6 110.6">
  <!-- Generator: Adobe Illustrator 30.0.0, SVG Export Plug-In . SVG Version: 2.1.1 Build 123)  -->
  <defs>
    <style>
      .st0 {
        fill: #fff;
      }

      .st1 {
        fill: #608731;
      }

      .st2 {
        fill: #466227;
      }
    </style>
  </defs>
  <circle class="st0" cx="55.3" cy="55.3" r="55.3"/>
  <g>
    <path class="st2" d="M35.1,17.6s-12.7,4.7-20.3,22.6l41.5-7.8-21.3-14.7ZM35.1,17.6,14.2,42.7s-5.6,12.4,1.7,30.3l23.7-35-25.4,4.7ZM14.2,42.7,17.5,74.8s4.7,12.7,22.6,20.3l-7.8-41.5-14.7,21.3ZM17.5,74.8,42.6,95.7s12.4,5.6,30.3-1.7l-35-23.7,4.7,25.4ZM42.6,95.7,75.3,92.9s12.8-4.7,20.3-22.6l-41.5,7.8,21.3,14.7ZM75.3,92.9,94.5,37.5l-23.7,35,25.4-4.7s5.6-12.4-1.7-30.3h0ZM94.5,37.5,92.9,35.7s-4.7-12.8-22.6-20.3l7.8,41.5,14.7-21.3ZM92.9,35.7,67.8,14.8s-12.4-5.6-30.3,1.7l35,23.7-4.7-25.4ZM67.8,14.8"/>
    <path class="st1" d="M55.3,4.6C27.3,4.6,4.6,27.3,4.6,55.3s22.7,50.7,50.7,50.7,50.7-22.7,50.7-50.7S83.3,4.6,55.3,4.6h0ZM55.3,102.1c-25.8,0-46.8-21-46.8-46.8S29.5,8.5,55.3,8.5s46.8,21,46.8,46.8-21,46.8-46.8,46.8h0ZM55.3,102.1"/>
  </g>
</svg>