<?xml version="1.0" encoding="UTF-8"?>
<svg id="Capa_1" xmlns="http://www.w3.org/2000/svg" version="1.1" viewBox="0 0 110.6 110.6">
  <!-- Generator: Adobe Illustrator 30.0.0, SVG Export Plug-In . SVG Version: 2.1.1 Build 123)  -->
  <defs>
    <style>
      .st0 {
        fill: #fff;
      }

      .st1 {
        fill: #a0c760;
      }

      .st2 {
        fill: #5b7f2f;
      }

      .st3 {
        fill: #71a237;
      }
    </style>
  </defs>
  <circle class="st0" cx="55.3" cy="55.3" r="55.3"/>
  <g>
    <path class="st3" d="M55.3,4.6C27.3,4.6,4.6,27.3,4.6,55.3s22.7,50.7,50.7,50.7,50.7-22.7,50.7-50.7S83.3,4.6,55.3,4.6ZM55.3,102.1c-25.8,0-46.8-21-46.8-46.8S29.5,8.5,55.3,8.5s46.8,21,46.8,46.8-21,46.8-46.8,46.8Z"/>
    <path class="st1" d="M45,57.1l-9.2,10.2-.9,1,10,9,.8-.9,9.2-10.3-10.1-9ZM41.8,68.8c-.4.5-1.1.5-1.6,0l-.6-.5c-.2-.2-.4-.5-.4-.8,0-.3,0-.6.3-.8l4.6-5.2c.4-.5,1.2-.5,1.6-.1l.6.5c.2.2.4.5.4.8,0,.3,0,.6-.3.8l-4.6,5.2ZM32.9,70.7s0,0,0,0c-7.6,1.8-15,9.9-7.5,19,.3.4.9.6,1.4.5.5-.1.9-.6,1-1.1.2-1.2.7-2.5,1.7-3.5,2.3-2.2,8.7,1.3,12.9-5.6,0,0,.5-.8.6-1l-9.4-8.5c-.2,0-.4,0-.6.1ZM38,81.2c-1.5.9-3.2,1-4.9,1.1-1.9,0-3.8.1-5.3,1.6-.3.3-.5.6-.8.9-.3.3-.7.5-1.1.4-.4,0-.8-.4-.9-.8-.4-1.3-.5-2.7-.1-4.1.2-.8.6-1.6,1.1-2.3,1.9,2.1,3.6,3.3,6.7,3,1.9-.2,3.7,0,5.3.3ZM47.7,54.3l34.3-33.1s1.4-1,3.6,1c1.1,1,1.4,1.9,1.5,2.5l-29.5,38.5-.8,1-10-9,.9-.8Z"/>
    <path class="st3" d="M70.4,29.1l-2.6-14.3s-12.4-5.6-30.3,1.7l27,18.3,5.9-5.7ZM14.2,42.7s-5.6,12.4,1.7,30.3l23.7-35-25.4,4.7ZM78.8,21c.1,0,.2-.2.3-.3,0,0,.3-.2.5-.2-2.6-1.8-5.6-3.5-9.2-5l2.2,11.6,6.3-6ZM35.1,17.6s-12.7,4.7-20.3,22.6l41.5-7.8-21.3-14.7ZM30.7,70s0,0,0,0c0,0,0,0,0,0h.2s0,0,0,0c0-.6.2-1.2.6-1.6l2.8-3.1-2.2-11.7-14.7,21.3s.6,1.5,2,3.8c2-4.1,6.2-7.4,11.2-8.5Z"/>
    <path class="st2" d="M87.5,27.5c0,0,0,.2-.1.2l-30.3,39.5c-.3.4-.8.7-1.3.8,0,.5-.3.9-.6,1.2l-8.3,9.2,8.4,8.4c4.1,4.1,9.5,6.3,15.3,6.3s11.2-2.2,15.3-6.3c16.3-16.3,16.8-42.4,1.7-59.3ZM75.7,79.1c-2.8,2.8-7.4,2.8-10.2,0-2.8-2.8-2.8-7.4,0-10.2,2.8-2.8,7.4-2.8,10.2,0,2.8,2.8,2.8,7.4,0,10.2ZM83.1,58.8c-1.4,1.4-3.7,1.4-5.1,0-1.4-1.4-1.4-3.7,0-5.1,1.4-1.4,3.7-1.4,5.1,0,1.4,1.4,1.4,3.7,0,5.1Z"/>
  </g>
</svg>