<?xml version="1.0" encoding="UTF-8"?>
<svg id="Capa_1" xmlns="http://www.w3.org/2000/svg" version="1.1" viewBox="0 0 110.6 110.6">
  <!-- Generator: Adobe Illustrator 30.0.0, SVG Export Plug-In . SVG Version: 2.1.1 Build 123)  -->
  <defs>
    <style>
      .st0 {
        fill: #fff;
      }

      .st1 {
        fill: #608731;
      }

      .st2 {
        fill: #466227;
      }
    </style>
  </defs>
  <circle class="st0" cx="55.3" cy="55.3" r="55.3"/>
  <g>
    <path class="st2" d="M72.2,50l-12.8-7.7c-.2-.1-.4,0-.6,0-.2.1-.2.4-.2.6l4.5,14.3c0,.2.3.4.5.4h0c.2,0,.4-.1.5-.3l2.1-5.5,5.8-.8c.2,0,.4-.2.4-.4,0-.2,0-.4-.2-.5h0ZM72.2,50"/>
    <path class="st2" d="M91,70.8h-.4c-.3-13-8.1-24.8-20-30.1h11.7v.4c0,.3.2.5.5.5h5.1c.3,0,.5-.2.5-.5v-5.1c0-.3-.2-.5-.5-.5h-5.1c-.3,0-.5.2-.5.5v.4h-22.6v-.5c0-.2-.2-.4-.4-.4h-5.3c-.2,0-.4.2-.4.4v.5h-22.6v-.4c0-.3-.2-.5-.5-.5h-5.1c-.3,0-.5.2-.5.5v5.1c0,.3.2.5.5.5h5.1c.3,0,.5-.2.5-.5v-.4h11.7c-11.9,5.4-19.7,17.1-20,30.1h-.4c-.3,0-.5.2-.5.5v3.1c0,.3.2.5.5.5h3.1c.3,0,.5-.2.5-.5v-3.1c0-.3-.2-.5-.5-.5h-.4c.2-7.1,2.8-14,7.3-19.4,4.5-5.4,10.7-9.2,17.6-10.7h3.7s0,.5,0,.5c0,.2.2.4.4.4h5.3c.2,0,.4-.2.4-.4v-.5h3.8c6.8,1.5,13,5.3,17.5,10.7,4.5,5.5,7.1,12.3,7.3,19.4h-.4c-.3,0-.5.2-.5.5v3.1c0,.3.2.5.5.5h3.1c.3,0,.5-.2.5-.5v-3.1c0-.3-.2-.5-.5-.5h0ZM24.4,73.5h-1.3v-1.3h1.3v1.3ZM90.1,73.5h-1.3v-1.3h1.3v1.3ZM90.1,73.5"/>
  </g>
  <path class="st1" d="M55.3,4.6C27.3,4.6,4.6,27.3,4.6,55.3s22.7,50.7,50.7,50.7,50.7-22.7,50.7-50.7S83.3,4.6,55.3,4.6h0ZM55.3,102.1c-25.8,0-46.8-21-46.8-46.8S29.5,8.5,55.3,8.5s46.8,21,46.8,46.8-21,46.8-46.8,46.8h0ZM55.3,102.1"/>
</svg>