<?xml version="1.0" encoding="UTF-8"?>
<svg id="Capa_1" xmlns="http://www.w3.org/2000/svg" version="1.1" viewBox="0 0 110.6 110.6">
  <!-- Generator: Adobe Illustrator 30.0.0, SVG Export Plug-In . SVG Version: 2.1.1 Build 123)  -->
  <defs>
    <style>
      .st0 {
        fill: #fff;
      }

      .st1 {
        fill: #608731;
      }

      .st2 {
        fill: #71a237;
      }

      .st3 {
        fill: #466227;
      }
    </style>
  </defs>
  <circle class="st0" cx="55.3" cy="55.3" r="55.3"/>
  <g>
    <path class="st1" d="M55.3,4.6C27.3,4.6,4.6,27.3,4.6,55.3s22.7,50.7,50.7,50.7,50.7-22.7,50.7-50.7S83.3,4.6,55.3,4.6h0ZM55.3,102.1c-25.8,0-46.8-21-46.8-46.8S29.5,8.5,55.3,8.5s46.8,21,46.8,46.8-21,46.8-46.8,46.8h0ZM55.3,102.1"/>
    <g>
      <g>
        <path class="st3" d="M24,74.9s5.7,2.2,14.8-1.4c9.1-3.6,15.4.3,15.4,1h0v-3.5c0-.7-4.4-4.6-13.4-1-9.1,3.6-13.5,1.4-13.5,1.4v-20l-3.3-4.3v27.8Z"/>
        <path class="st3" d="M70.6,73.5c9,3.6,14.8,1.4,14.8,1.4v-36.7s-1.2.6-3.3.7v32.6s-4.4,2.2-13.5-1.4c-9.1-3.6-13.4.3-13.4,1v3.4h0c0-.6,6.4-4.5,15.4-.9Z"/>
        <path class="st3" d="M68.5,68.6c9,3.6,12,1.4,12,1.4v-33.9s-2.9,2.2-11.9-1.4c-9.1-3.6-13.4.3-13.4,1v33.9h0c0-.6,4.3-4.5,13.4-.9Z"/>
        <path class="st3" d="M35.5,62l-.3-.4-6.3-8.2v16.6s2.9,2.2,12-1.4c2.5-1,4.7-1.4,6.5-1.5l-10.6-4.2c-.5-.2-.9-.5-1.2-.9Z"/>
        <path class="st3" d="M51.9,51.3l1.5,13.2c0,.2,0,.5,0,.7,0,1.1-.6,2.1-1.6,2.6,1.5.6,2.2,1.4,2.2,1.7h0v-33.9c0-.7-4.4-4.6-13.4-1-.3.1-.6.3-.9.4l11.4,14.8c.3.4.5.9.6,1.5Z"/>
        <path class="st3" d="M87.2,39.6v37.2H21.8v-32.6l-1.4-1.8v36.1h29.2c.7,0,2.2,1,4.5,1s3.4-1,4.2-1h30.6v-39h-1.8Z"/>
      </g>
      <path class="st2" d="M27.5,29.1l-5.9,4.6c-1.4,1.1-1.7,3.2-.6,4.6,0,0,0,0,0,0h0s16.6,21.6,16.6,21.6l.3.4,12.8,5-1.6-13.6-1.1-1.4h0l-15.9-20.6h0s0,0,0,0c-1.1-1.4-3.1-1.7-4.6-.5ZM39.3,59.1l8.1-6.3.8,7-2.5,1.8-6.5-2.5ZM43.2,50.9l-4.6,3.6-11.9-15.5,4.6-3.6,11.9,15.5Z"/>
    </g>
  </g>
</svg>