<?xml version="1.0" encoding="UTF-8"?>
<svg id="Capa_1" xmlns="http://www.w3.org/2000/svg" version="1.1" viewBox="0 0 110.6 110.6">
  <!-- Generator: Adobe Illustrator 30.0.0, SVG Export Plug-In . SVG Version: 2.1.1 Build 123)  -->
  <defs>
    <style>
      .st0 {
        fill: #fff;
      }

      .st1 {
        fill: #608731;
      }

      .st2 {
        fill: #71a237;
      }
    </style>
  </defs>
  <circle class="st0" cx="55.3" cy="55.3" r="55.3"/>
  <g>
    <path class="st1" d="M55.3,4.6C27.3,4.6,4.6,27.3,4.6,55.3s22.7,50.7,50.7,50.7,50.7-22.7,50.7-50.7S83.3,4.6,55.3,4.6h0ZM55.3,102.1c-25.8,0-46.8-21-46.8-46.8S29.5,8.5,55.3,8.5s46.8,21,46.8,46.8-21,46.8-46.8,46.8h0ZM55.3,102.1"/>
    <g>
      <path class="st2" d="M82.8,33H27.8c-1.6,0-3,1.3-3,3v34.5c0,1.6,1.3,3,3,3h20.6v6.7h-8c-1.5,0-2.7,1.2-2.7,2.7s1.2,2.7,2.7,2.7h29.9c1.5,0,2.7-1.2,2.7-2.7s-1.2-2.7-2.7-2.7h-8v-6.7h20.6c1.6,0,3-1.3,3-3v-34.5c0-1.6-1.3-3-3-3h0ZM82.9,70.8H27.8v-35.1h55.1v35.1ZM81.4,69"/>
      <path class="st2" d="M38.8,54.9l9.3,4.3c.2.1.5.2.8.2s.7,0,1-.3c.5-.3.8-.9.8-1.5h0c0-.7-.4-1.4-1-1.7l-5.8-2.7,5.8-2.7c.6-.3,1-.9,1-1.6h0c0-.7-.3-1.2-.8-1.6-.3-.2-.6-.3-1-.3s-.5,0-.8.2l-9.3,4.3c-.6.3-1,.9-1,1.6h0c0,.8.4,1.5,1,1.8h0ZM38.8,54.9"/>
      <path class="st2" d="M50.8,63.7c.3.5.9.7,1.5.7h0c.8,0,1.5-.5,1.7-1.3l6.1-19c.2-.5,0-1.2-.3-1.6-.3-.5-.9-.7-1.5-.7h0c-.8,0-1.5.5-1.7,1.3l-6.1,19c-.2.5,0,1.2.3,1.6h0ZM50.8,63.7"/>
      <path class="st2" d="M60,48.8c0,.7.4,1.3,1,1.6l5.8,2.7-5.8,2.7c-.6.3-1,.9-1,1.6h0c0,.7.3,1.2.8,1.6.3.2.6.3,1,.3s.5,0,.8-.2l9.3-4.3c.6-.3,1-.9,1-1.6h0c0-.8-.4-1.5-1-1.8l-9.3-4.3c-.2-.1-.5-.2-.8-.2s-.7,0-1,.3c-.5.3-.8.9-.8,1.5h0ZM60,48.8"/>
    </g>
  </g>
</svg>