<?xml version="1.0" encoding="UTF-8"?>
<svg id="Capa_1" xmlns="http://www.w3.org/2000/svg" version="1.1" viewBox="0 0 102.6 102.6">
  <!-- Generator: Adobe Illustrator 30.0.0, SVG Export Plug-In . SVG Version: 2.1.1 Build 123)  -->
  <defs>
    <style>
      .st0 {
        fill: #fff;
      }

      .st1 {
        fill: #608731;
      }

      .st2 {
        fill: #466227;
      }
    </style>
  </defs>
  <g>
    <circle class="st0" cx="51.3" cy="51.3" r="51.3"/>
    <path class="st1" d="M51.3,4.3C25.3,4.3,4.3,25.3,4.3,51.3s21.1,47,47,47,47-21.1,47-47S77.3,4.3,51.3,4.3h0ZM51.3,94.7c-23.9,0-43.4-19.5-43.4-43.4S27.4,7.9,51.3,7.9s43.4,19.5,43.4,43.4-19.5,43.4-43.4,43.4h0ZM51.3,94.7"/>
  </g>
  <g>
    <path class="st2" d="M50.1,30.2h28.3v25.9h-5c-.2-1.2-.7-2.1-1.8-2.6-.2-.1-.4-.6-.5-1-.4-1.8-.7-3.7-1.1-5.5,0-.2,0-.4-.1-.5-.2-.3-.5-.6-.8-.8-.2.3-.6.5-.7.8-.2.8-.3,1.6-.5,2.4-.2.9-.4,1.8-.6,2.8-.2,1-.3,1.9-1.4,2.4-.6.3-.8,1.2-1.3,2h-14.4v-25.9Z"/>
    <path class="st2" d="M64,70.2c0-2.7,0-5.4,0-8.1,0-1.2.3-1.4,1.4-1.5,2.4,0,4.9,0,7.3,0,1,0,1.4.4,1.4,1.4,0,5.4,0,10.8,0,16.1,0,1.1-.3,1.4-1.4,1.4-2.4,0-4.9,0-7.3,0-1,0-1.4-.4-1.4-1.4,0-2.7,0-5.4,0-8.1ZM67.2,69.8c0-1.6,0-3.3,0-4.9,0-.5,0-1.1-.7-1-.3,0-.7.7-.7,1,0,3.3,0,6.6,0,9.8,0,.4.4.9.7,1,.7.1.7-.5.7-1,0-1.6,0-3.3,0-4.9Z"/>
    <path class="st2" d="M83.3,51.4h-3.3c0-.4,0-.8,0-1.2,0-6.6,0-13.2,0-19.8,0-1.7,0-1.7-1.8-1.7-7.3,0-14.7,0-22,0h-1.2v-3.2c.4,0,.7,0,1.1,0,7.4,0,14.7,0,22.1,0,.6,0,1.2.3,1.7.6.7.5,1.2,1.2,1.9,1.7,1.4,1,1.7,2.3,1.7,3.9-.1,6.1,0,12.3,0,18.4,0,.4,0,.8,0,1.3Z"/>
    <path class="st2" d="M23.2,70.6c0-4.9,3.8-8.7,8.7-8.8,4.8,0,8.7,3.9,8.8,8.7,0,4.8-3.9,8.8-8.7,8.8-4.8,0-8.7-3.9-8.7-8.7ZM38.5,70.6c0-3.7-3-6.7-6.7-6.6-3.7,0-6.7,3-6.7,6.7,0,3.7,3,6.7,6.8,6.7,3.6,0,6.6-3,6.6-6.7Z"/>
    <path class="st2" d="M25.9,43.1c4.4-6,8.8-12,13.3-18,1.5,1.1,2,3.5.8,5.1-3.5,4.7-7,9.4-10.5,14.1,0,0-.1,0,0,0-1.2-.4-2.3-.8-3.5-1.2Z"/>
    <path class="st2" d="M33.1,45.7c1.6-1.2,3.1-1.1,4.6-.3.9.5,2.1.8,3.1.9,3.4.2,5.7,2.9,5.1,6.1-.5,2.5-2.6,4.2-5.1,4.2-2.5,0-4.9-1.9-4.9-4.5,0-2.4-1-4.1-2.4-5.8-.1-.2-.2-.3-.4-.6ZM41,47.9c-2,0-3.5,1.5-3.6,3.5,0,2,1.5,3.5,3.5,3.6,1.9,0,3.5-1.5,3.6-3.5,0-1.9-1.6-3.5-3.5-3.6Z"/>
    <path class="st2" d="M28.5,45.8c-.4.6-.8,1.1-1.2,1.6-1.1,1.3-1.6,2.7-1.6,4.4,0,2.5-2.2,4.6-4.8,4.7-2.8.1-5.1-1.9-5.4-4.7-.2-2.5,1.7-5,4.1-5.4.8-.1,1.5,0,2.3-.2.7-.2,1.4-.4,2-.8,1.5-.9,3.1-.9,4.5.3ZM20.7,47.9c-1.9,0-3.5,1.6-3.6,3.5,0,1.9,1.6,3.5,3.5,3.6,1.9,0,3.6-1.6,3.6-3.5,0-1.9-1.6-3.5-3.5-3.6Z"/>
    <path class="st2" d="M22.3,25.1c2.5,3.4,5.1,6.8,7.6,10.3-.7,1-1.4,2-2.2,3-.2-.3-.5-.5-.6-.7-1.8-2.4-3.6-4.7-5.3-7.1-1.3-1.8-1.1-3.8.6-5.5Z"/>
    <path class="st2" d="M54.9,79.3h-17.6c1.3-1.2,2.3-2.1,4.2-2,3.7.2,7.4,0,11.1,0q1.8,0,2.3,2Z"/>
    <path class="st2" d="M69,59.2q-2.8,0-2.7-2.9c0-1.1.3-1.4,1.4-1.4.9,0,1.9,0,2.8,0,.9,0,1.3.4,1.3,1.3,0,0,0,0,0,.1q0,2.9-2.8,2.9Z"/>
    <path class="st2" d="M34,40.9c.6.8,1.1,1.6,1.7,2.2-1.1.4-2.1.8-3.1,1.2-.2,0-.5,0-.5,0-.1-.2-.2-.5,0-.6.6-.9,1.3-1.8,2-2.8Z"/>
    <path class="st2" d="M69.7,53.4h-1.4c.2-1,.4-1.9.6-2.8,0,0,.2,0,.2,0,.2.9.4,1.8.6,2.8Z"/>
    <path class="st2" d="M37.1,70.6c0,2.9-2.3,5.2-5.3,5.2-2.9,0-5.2-2.4-5.2-5.2,0-2.9,2.4-5.3,5.3-5.2,2.9,0,5.2,2.3,5.2,5.2ZM31.8,66.3c-2.4,0-4.3,1.9-4.3,4.3,0,2.3,1.9,4.2,4.3,4.3,2.3,0,4.4-2,4.4-4.3,0-2.4-1.9-4.3-4.3-4.3Z"/>
    <path class="st2" d="M38.9,51.5c0-1.2.8-2.1,2-2.1,1.2,0,2.2,1,2.1,2.1,0,1.1-1,2.1-2.1,2-1.2,0-2-.9-2-2.1Z"/>
    <path class="st2" d="M22.7,51.5c0,1.1-1,2.1-2.1,2.1-1.1,0-2.1-.9-2.1-2,0-1.2.9-2.2,2.1-2.1,1.1,0,2.1,1,2.1,2.1Z"/>
    <path class="st2" d="M31.9,67.8c1.6,0,2.8,1.3,2.8,2.9,0,1.6-1.4,2.8-2.9,2.8-1.6,0-2.8-1.3-2.8-2.9,0-1.6,1.3-2.8,2.9-2.8Z"/>
  </g>
</svg>