<?xml version="1.0" encoding="UTF-8"?>
<svg id="ELEMENTS" xmlns="http://www.w3.org/2000/svg" version="1.1" viewBox="0 0 50 50.6">
  <!-- Generator: Adobe Illustrator 30.0.0, SVG Export Plug-In . SVG Version: 2.1.1 Build 123)  -->
  <path d="M38.5,10.4H11.5c-3,0-5.5,2.5-5.5,5.5v18.9c0,3,2.5,5.5,5.5,5.5h27c3,0,5.5-2.5,5.5-5.5V15.9c0-3-2.5-5.5-5.5-5.5ZM38.5,13c.2,0,.4,0,.7,0l-11.4,12.9c-.7.8-1.7,1.2-2.8,1.2s-2.1-.5-2.8-1.2l-11.4-12.9c.2,0,.4,0,.7,0h27ZM41.4,34.7c0,1.6-1.3,2.9-2.9,2.9H11.5c-1.6,0-2.9-1.3-2.9-2.9V15.9c0-.4,0-.8.2-1.1l11.4,13c1.2,1.4,2.9,2.1,4.7,2.1s3.5-.8,4.7-2.1l11.4-13c.1.3.2.7.2,1.1v18.9Z"/>
</svg>