<?xml version="1.0" encoding="UTF-8"?>
<svg id="ELEMENTS" xmlns="http://www.w3.org/2000/svg" version="1.1" viewBox="0 0 50 50.6">
  <!-- Generator: Adobe Illustrator 30.0.0, SVG Export Plug-In . SVG Version: 2.1.1 Build 123)  -->
  <defs>
    <style>
      .st0 {
        fill-rule: evenodd;
      }
    </style>
  </defs>
  <path d="M7.4,43l2.5-9.5c-1.4-2.6-2.2-5.5-2.2-8.4,0-9.6,7.8-17.5,17.5-17.5s17.5,7.8,17.5,17.5-7.8,17.5-17.5,17.5-5.7-.7-8.3-2.1l-9.5,2.5ZM17.3,36.9l.6.4c2.2,1.3,4.7,2,7.2,2,7.8,0,14.2-6.4,14.2-14.2s-6.4-14.2-14.2-14.2-14.2,6.4-14.2,14.2.7,5.1,2.1,7.3l.4.6-1.4,5.3,5.3-1.4Z"/>
  <path class="st0" d="M31.7,27.5c-.7-.4-1.7-.9-2.5-.6-.6.3-1.1,1.3-1.5,1.8-.2.3-.5.3-.8.2-2.4-1-4.3-2.6-5.7-4.8-.2-.3-.2-.6,0-.9.4-.5.9-1,1-1.7.1-.6-.2-1.4-.5-2-.3-.7-.7-1.8-1.5-2.2-.7-.4-1.6-.2-2.2.3-1,.8-1.5,2.2-1.5,3.5,0,.4,0,.7.1,1.1.2.9.6,1.7,1.1,2.4.3.6.7,1.1,1.1,1.7,1.3,1.8,2.9,3.3,4.8,4.5.9.6,2,1.1,3,1.4,1.2.4,2.2.8,3.5.6,1.3-.3,2.6-1.1,3.2-2.4.2-.4.2-.8.1-1.2-.2-.8-1.3-1.3-2-1.7Z"/>
</svg>